<svg width="500" height="500" viewBox="0 0 500 500" fill="none" xmlns="http://www.w3.org/2000/svg">
<g id="8610295_3929639 1">
<g id="Floor">
<path id="Floor_1_" d="M250 489.547C377.641 489.547 481.115 429.807 481.115 356.113C481.115 282.419 377.641 222.679 250 222.679C122.359 222.679 18.885 282.419 18.885 356.113C18.885 429.807 122.359 489.547 250 489.547Z" fill="#F5F5F5"/>
</g>
<g id="Shadow">
<path id="Shadow_2_" d="M409.599 407.922C408.263 401.748 401.563 396.85 394.045 394.318C390.699 390.164 384.552 385.448 374.01 380.309C350.749 368.969 338.198 363.112 331.765 360.196C327.702 358.355 322.119 358.584 318.488 360.736L265.123 392.373C263.908 393.093 261.673 393.1 260.436 392.388C260.206 392.254 260.086 392.14 260.029 392.071C260.086 392.005 260.2 391.894 260.421 391.765C280.003 380.335 313.641 360.644 318.906 357.178C321.538 355.445 321.47 353.198 320.528 351.671C317.916 347.437 305.215 344.252 299.668 347.457L231.662 386.721C229.356 388.051 228.102 390.009 228.221 392.092C228.348 394.319 230.001 396.282 232.758 397.481C242.299 401.626 258.849 409.09 283.511 421.113C289.851 424.204 294.882 427.324 298.476 430.343C298.01 430.276 297.547 430.219 297.087 430.174C279.546 428.457 270.099 434.731 268.75 441.285C267.672 446.522 271.52 451.354 278.551 453.595C288.421 456.738 304.406 452.68 307.858 444.063C308.615 442.172 308.897 439.908 308.114 437.319C312.326 439.647 315.646 442.894 316.432 446.532C317.516 451.542 313.604 456.78 305.117 461.68C280.675 475.79 262.139 467.125 234.513 451.177C230.569 448.9 202.87 433.043 154.409 405.323C148.072 401.698 144.136 394.91 144.136 387.606V374.951C144.136 373.967 143.338 373.169 142.354 373.169C141.37 373.169 140.572 373.967 140.572 374.951V387.606C140.572 396.184 145.196 404.159 152.64 408.417C201.095 436.136 228.79 451.989 232.732 454.264C250.797 464.695 265.647 472.326 280.944 472.325C289.266 472.324 297.723 470.065 306.898 464.767C319.48 457.502 320.921 450.432 319.915 445.779C318.573 439.573 312.3 434.659 305.225 432.066C301.907 427.876 295.739 423.11 285.074 417.911C260.352 405.86 243.752 398.372 234.178 394.213C232.744 393.591 231.825 392.701 231.78 391.892C231.741 391.202 232.347 390.443 233.444 389.809L301.45 350.545C304.222 348.945 310.805 349.831 314.843 351.69C316.977 352.672 317.532 353.515 317.57 353.63C317.569 353.633 317.48 353.854 316.949 354.203C311.753 357.622 278.177 377.277 258.625 388.688C257.227 389.506 256.426 390.743 256.429 392.081C256.433 393.424 257.245 394.661 258.658 395.476C260.994 396.828 264.636 396.809 266.944 395.441L320.309 363.805C322.927 362.251 327.314 362.093 330.297 363.445C336.709 366.352 349.227 372.194 372.45 383.515C378.788 386.605 383.816 389.723 387.41 392.742C386.946 392.677 386.484 392.622 386.026 392.577C368.487 390.862 359.038 397.132 357.689 403.687C356.611 408.924 360.459 413.756 367.49 415.997C377.361 419.14 393.345 415.083 396.797 406.466C397.586 404.495 397.86 402.116 396.946 399.389C401.611 401.695 405.32 404.991 406.118 408.679C407.181 413.587 403.01 418.913 394.056 424.083L385.911 428.785C385.716 428.616 385.514 428.461 385.304 428.34C384.609 427.939 383.979 427.901 383.523 428.164L379.977 430.212C379.152 429.804 378.405 429.77 377.854 430.088L364.509 437.793C363.895 438.138 363.514 438.89 363.514 439.965C363.514 440.236 363.539 440.515 363.586 440.797L363.087 441.114C363.089 441.113 363.093 441.112 363.095 441.111L360.127 442.998C360.125 442.999 360.122 443 360.122 443L359.537 443.372C359.539 443.371 359.541 443.371 359.543 443.37L356.531 445.285L356.528 445.286L355.988 445.63L355.991 445.629L352.935 447.572L352.439 447.887L348.276 449.526C348.211 449.562 348.153 449.609 348.098 449.662L346.975 450.714L346.979 450.721C346.772 450.919 346.644 451.237 346.644 451.665C346.644 452.713 347.38 453.988 348.288 454.512C348.658 454.725 348.995 454.774 349.269 454.695L349.273 454.702L350.711 454.268C350.795 454.247 350.874 454.215 350.947 454.173L354.449 451.384L358.181 449.438C358.181 449.438 358.18 449.439 358.178 449.44L358.746 449.144L358.748 449.142L361.912 447.492C361.91 447.493 361.909 447.495 361.907 447.496L362.522 447.175C362.524 447.174 362.526 447.171 362.526 447.171L365.644 445.545C365.641 445.547 365.639 445.549 365.637 445.551L366.17 445.273C366.391 445.454 366.62 445.615 366.855 445.751C367.777 446.284 368.613 446.334 369.217 445.985L373.183 443.695L382.566 438.278C382.651 438.23 382.719 438.156 382.795 438.093C383.214 437.742 383.479 437.163 383.532 436.385L387.076 434.339C387.307 434.209 387.494 434.002 387.623 433.726C387.752 433.451 387.824 433.107 387.824 432.702C387.824 432.463 387.792 432.216 387.745 431.967C387.74 431.944 387.734 431.92 387.729 431.897C387.726 431.884 387.722 431.87 387.719 431.857L395.838 427.169C409.007 419.559 410.59 412.503 409.599 407.922Z" fill="#E0E0E0"/>
</g>
<g id="wire">
<g id="Wire_2_">
<g id="Wire_1_">
<path id="Wire" d="M142.353 369.723V382.378C142.353 390.339 146.613 397.689 153.524 401.642C176.638 414.863 228.031 444.264 233.622 447.492C260.509 463.015 280.408 472.775 306.006 457.996C331.604 443.217 311.946 428.191 296.912 426.72C269.35 424.024 262.944 441.525 279.091 446.669C295.238 451.812 329.494 436.32 284.291 414.284C259.167 402.036 242.481 394.535 233.467 390.619C229.232 388.779 228.804 385.201 232.552 383.037L300.557 343.774C306.644 340.26 324.458 346.165 317.925 350.463C312.106 354.292 270.852 378.385 259.521 385C257.759 386.029 257.773 387.682 259.545 388.705C261.341 389.742 264.26 389.73 266.031 388.679L319.397 357.044C322.508 355.199 327.522 355.004 331.029 356.594C337.498 359.527 350.036 365.379 373.228 376.685C418.431 398.721 384.175 414.213 368.028 409.07C351.881 403.927 358.287 386.426 385.849 389.121C400.883 390.591 422.193 404.664 394.943 420.396L379.012 429.594" stroke="#455A64" stroke-width="3.564" stroke-miterlimit="10" stroke-linecap="round" stroke-linejoin="round"/>
<g id="Plug">
<g id="Group">
<path id="Vector" d="M383.521 422.933C383.977 422.67 384.606 422.708 385.302 423.109C386.693 423.912 387.82 425.865 387.82 427.471C387.82 428.28 387.534 428.846 387.073 429.107L377.009 434.918L373.46 428.742L383.521 422.933Z" fill="#37474F"/>
<path id="Vector_2" opacity="0.1" d="M387.518 425.943C387.705 426.457 387.82 426.98 387.82 427.472C387.82 428.281 387.534 428.847 387.073 429.108L377.009 434.919L375.754 432.736L387.518 425.943Z" fill="black"/>
<path id="Vector_3" d="M377.747 433.288C377.747 431.682 376.619 429.729 375.229 428.926C374.54 428.528 373.915 428.487 373.46 428.743C372.997 429.003 372.71 429.57 372.71 430.38C372.71 431.986 373.838 433.939 375.228 434.742C375.923 435.144 376.553 435.182 377.009 434.918C377.465 434.655 377.747 434.091 377.747 433.288Z" fill="#37474F"/>
</g>
<g id="Group_2">
<path id="Vector_4" d="M377.852 424.857C378.457 424.508 379.292 424.558 380.214 425.091C382.059 426.156 383.554 428.746 383.554 430.877C383.554 431.95 383.175 432.701 382.563 433.047L369.215 440.754L364.507 432.562L377.852 424.857Z" fill="#455A64"/>
<path id="Vector_5" opacity="0.1" d="M383.153 428.849C383.401 429.531 383.554 430.225 383.554 430.877C383.554 431.95 383.175 432.701 382.563 433.047L369.214 440.754L367.55 437.858L383.153 428.849Z" fill="black"/>
<path id="Vector_6" d="M370.193 438.591C370.193 436.461 368.698 433.87 366.853 432.805C365.939 432.277 365.11 432.223 364.507 432.562C363.893 432.907 363.512 433.659 363.512 434.734C363.512 436.864 365.008 439.455 366.852 440.52C367.774 441.053 368.61 441.103 369.214 440.754C369.818 440.405 370.193 439.656 370.193 438.591Z" fill="#37474F"/>
</g>
<g id="Group_3">
<g id="Group_4">
<path id="Vector_7" d="M366.853 434.474C366.334 434.175 365.865 434.144 365.522 434.336L352.436 442.655L348.273 444.294L350.944 448.941L354.446 446.152L368.192 438.982C368.535 438.784 368.747 438.36 368.747 437.755C368.747 436.548 367.899 435.078 366.853 434.474Z" fill="#DA27DE"/>
<path id="Vector_8" opacity="0.7" d="M366.853 434.474C366.334 434.175 365.865 434.144 365.522 434.336L352.436 442.655L348.273 444.294L350.944 448.941L354.446 446.152L368.192 438.982C368.535 438.784 368.747 438.36 368.747 437.755C368.747 436.548 367.899 435.078 366.853 434.474Z" fill="white"/>
</g>
<g id="Group_5">
<path id="Vector_9" d="M349.604 444.432C349.085 444.133 348.615 444.102 348.273 444.294C348.208 444.33 348.15 444.377 348.095 444.43L346.972 445.482L349.271 449.47L350.709 449.036C350.793 449.015 350.872 448.983 350.945 448.941C351.288 448.743 351.5 448.318 351.5 447.714C351.499 446.506 350.651 445.037 349.604 444.432Z" fill="#DA27DE"/>
<path id="Vector_10" opacity="0.5" d="M349.604 444.432C349.085 444.133 348.615 444.102 348.273 444.294C348.208 444.33 348.15 444.377 348.095 444.43L346.972 445.482L349.271 449.47L350.709 449.036C350.793 449.015 350.872 448.983 350.945 448.941C351.288 448.743 351.5 448.318 351.5 447.714C351.499 446.506 350.651 445.037 349.604 444.432Z" fill="white"/>
</g>
<path id="Vector_11" d="M349.929 448.331C349.929 447.283 349.193 446.008 348.285 445.484C347.835 445.224 347.427 445.198 347.131 445.364C346.829 445.534 346.641 445.904 346.641 446.433C346.641 447.481 347.377 448.756 348.285 449.28C348.739 449.542 349.15 449.567 349.447 449.395C349.745 449.224 349.929 448.856 349.929 448.331Z" fill="#DA27DE"/>
<g id="Group_6" opacity="0.2">
<path id="Vector_12" d="M352.436 442.656C352.693 442.512 353.046 442.535 353.435 442.76C354.221 443.214 354.858 444.317 354.858 445.225C354.858 445.679 354.703 446.005 354.446 446.154L354.967 445.882C355.225 445.733 355.375 445.383 355.375 444.929C355.375 444.022 354.738 442.918 353.952 442.464C353.563 442.239 353.189 442.197 352.932 442.341L352.436 442.656Z" fill="#DA27DE"/>
<path id="Vector_13" d="M355.986 440.398C356.266 440.241 356.65 440.266 357.075 440.511C357.931 441.005 358.625 442.208 358.625 443.196C358.625 443.69 358.456 444.046 358.176 444.208L358.744 443.912C359.025 443.75 359.189 443.368 359.189 442.874C359.189 441.885 358.495 440.683 357.639 440.189C357.215 439.944 356.808 439.898 356.528 440.055L355.986 440.398Z" fill="#DA27DE"/>
<path id="Vector_14" d="M359.535 438.141C359.838 437.971 360.254 437.998 360.713 438.263C361.639 438.798 362.391 440.099 362.391 441.169C362.391 441.704 362.208 442.089 361.905 442.264L362.52 441.943C362.824 441.768 363.001 441.354 363.001 440.82C363.001 439.75 362.25 438.449 361.323 437.914C360.864 437.649 360.423 437.599 360.12 437.769L359.535 438.141Z" fill="#DA27DE"/>
<path id="Vector_15" d="M363.085 435.883C363.411 435.7 363.859 435.729 364.353 436.014C365.35 436.59 366.158 437.989 366.158 439.14C366.158 439.716 365.961 440.13 365.635 440.318L366.296 439.973C366.623 439.784 366.813 439.34 366.813 438.764C366.813 437.613 366.005 436.213 365.008 435.638C364.514 435.353 364.04 435.299 363.714 435.482L363.085 435.883Z" fill="#DA27DE"/>
</g>
<g id="Group_7" opacity="0.1">
<path id="Vector_16" d="M352.436 442.656C352.693 442.512 353.046 442.535 353.435 442.76C354.221 443.214 354.858 444.317 354.858 445.225C354.858 445.679 354.703 446.005 354.446 446.154L354.967 445.882C355.225 445.733 355.375 445.383 355.375 444.929C355.375 444.022 354.738 442.918 353.952 442.464C353.563 442.239 353.189 442.197 352.932 442.341L352.436 442.656Z" fill="black"/>
<path id="Vector_17" d="M355.986 440.398C356.266 440.241 356.65 440.266 357.075 440.511C357.931 441.005 358.625 442.208 358.625 443.196C358.625 443.69 358.456 444.046 358.176 444.208L358.744 443.912C359.025 443.75 359.189 443.368 359.189 442.874C359.189 441.885 358.495 440.683 357.639 440.189C357.215 439.944 356.808 439.898 356.528 440.055L355.986 440.398Z" fill="black"/>
<path id="Vector_18" d="M359.535 438.141C359.838 437.971 360.254 437.998 360.713 438.263C361.639 438.798 362.391 440.099 362.391 441.169C362.391 441.704 362.208 442.089 361.905 442.264L362.52 441.943C362.824 441.768 363.001 441.354 363.001 440.82C363.001 439.75 362.25 438.449 361.323 437.914C360.864 437.649 360.423 437.599 360.12 437.769L359.535 438.141Z" fill="black"/>
<path id="Vector_19" d="M363.085 435.883C363.411 435.7 363.859 435.729 364.353 436.014C365.35 436.59 366.158 437.989 366.158 439.14C366.158 439.716 365.961 440.13 365.635 440.318L366.296 439.973C366.623 439.784 366.813 439.34 366.813 438.764C366.813 437.613 366.005 436.213 365.008 435.638C364.514 435.353 364.04 435.299 363.714 435.482L363.085 435.883Z" fill="black"/>
</g>
</g>
</g>
</g>
</g>
</g>
<g id="headphone">
<g id="Headphones_1_">
<g id="Headphones">
<g id="Group_8">
<g id="Group_9">
<path id="Vector_20" d="M236.107 189.798C235.738 189.945 235.37 190.094 235.015 190.268C234.729 190.408 234.453 190.565 234.177 190.722C233.838 190.913 233.501 191.109 233.177 191.326C232.91 191.504 232.652 191.695 232.395 191.889C232.084 192.124 231.778 192.367 231.483 192.626C231.238 192.84 231 193.064 230.766 193.295C230.484 193.573 230.209 193.863 229.942 194.164C229.721 194.413 229.505 194.669 229.296 194.935C229.043 195.257 228.8 195.593 228.563 195.938C228.377 196.208 228.194 196.481 228.019 196.765C227.979 196.83 227.943 196.898 227.904 196.964C227.714 197.281 227.532 197.608 227.355 197.942C227.303 198.041 227.253 198.142 227.201 198.242C227.063 198.515 226.924 198.786 226.795 199.068C226.684 199.31 226.583 199.565 226.479 199.816C226.412 199.976 226.344 200.134 226.28 200.297C226.221 200.448 226.16 200.598 226.103 200.752C225.984 201.073 225.873 201.403 225.765 201.735C225.672 202.02 225.584 202.309 225.499 202.603C225.345 203.132 225.204 203.673 225.077 204.226C224.992 204.601 224.915 204.984 224.842 205.371C224.802 205.58 224.758 205.785 224.722 205.998C224.683 206.227 224.642 206.455 224.607 206.687C224.523 207.252 224.462 207.838 224.404 208.427C224.376 208.708 224.335 208.976 224.313 209.262C224.305 209.367 224.299 209.474 224.292 209.58C224.226 210.538 224.182 211.517 224.182 212.534C224.182 216.45 224.695 220.521 225.629 224.624C229.369 241.005 240.012 257.905 253.035 267.573C254.594 268.729 256.175 269.82 257.795 270.755C258.02 270.885 258.243 270.999 258.467 271.123C258.848 271.334 259.23 271.548 259.609 271.744C259.903 271.896 260.193 272.031 260.485 272.173C260.797 272.325 261.109 272.479 261.42 272.62C261.739 272.765 262.055 272.897 262.371 273.03C262.648 273.146 262.924 273.262 263.2 273.37C263.528 273.498 263.853 273.618 264.178 273.733C264.442 273.827 264.705 273.916 264.967 274.002C265.287 274.106 265.606 274.207 265.922 274.299C266.202 274.38 266.481 274.453 266.76 274.525C267.048 274.6 267.337 274.676 267.623 274.74C268.006 274.826 268.385 274.896 268.764 274.964C268.938 274.995 269.114 275.035 269.287 275.062C269.438 275.085 269.586 275.095 269.737 275.116C272.072 273.774 274.435 272.415 276.565 271.191C272.852 270.678 268.826 269.25 264.614 266.82C246.041 256.099 230.991 230.042 230.991 208.6C230.991 199.917 233.47 193.336 237.65 189.278C237.431 189.341 237.206 189.39 236.991 189.462C236.688 189.558 236.399 189.681 236.107 189.798Z" fill="#263238"/>
<g id="Group_10">
<path id="Vector_21" d="M242.128 182.561C241.089 182.941 240.08 183.373 239.139 183.917C237.977 184.588 233.455 187.2 232.348 187.838C232.341 187.842 232.342 187.862 232.338 187.874C235.176 186.234 238.469 185.324 242.128 185.222V182.561Z" fill="#37474F"/>
<path id="Vector_22" d="M269.286 275.058C269.113 275.031 268.939 274.991 268.765 274.961C268.386 274.893 268.006 274.824 267.621 274.737C267.335 274.673 267.047 274.596 266.759 274.522C266.57 274.473 266.385 274.435 266.195 274.381C266.104 274.356 266.012 274.322 265.921 274.296C265.604 274.204 265.286 274.103 264.967 273.999C264.704 273.913 264.441 273.824 264.176 273.729C263.852 273.614 263.527 273.495 263.201 273.367C262.925 273.259 262.647 273.143 262.369 273.026C262.054 272.893 261.738 272.762 261.421 272.618C261.109 272.477 260.795 272.321 260.481 272.169C260.191 272.028 259.902 271.893 259.61 271.743C259.227 271.545 258.84 271.329 258.454 271.114C258.236 270.993 258.02 270.885 257.8 270.759C256.237 269.857 254.711 268.808 253.204 267.699C249.118 264.694 245.254 261.012 241.773 256.819C238.915 253.377 236.308 249.614 234.027 245.663C230.225 239.078 227.33 231.97 225.693 224.948C225.666 224.834 225.651 224.721 225.626 224.607C224.691 220.509 224.178 216.445 224.178 212.54C224.178 211.602 224.218 210.691 224.278 209.794C224.286 209.663 224.29 209.528 224.299 209.398C224.306 209.307 224.316 209.219 224.323 209.129C224.386 208.378 224.465 207.641 224.569 206.922C224.591 206.769 224.611 206.614 224.634 206.462C224.671 206.223 224.721 205.996 224.762 205.761C224.822 205.428 224.887 205.1 224.956 204.775C225.029 204.425 225.097 204.069 225.18 203.729C225.271 203.357 225.383 203.007 225.486 202.647C225.525 202.512 225.561 202.374 225.601 202.24C225.617 202.188 225.63 202.133 225.646 202.082C225.738 201.787 225.828 201.491 225.928 201.205C226.051 200.851 226.191 200.517 226.327 200.177C226.501 199.741 226.676 199.307 226.869 198.894C227.009 198.594 227.16 198.308 227.311 198.021C227.371 197.906 227.429 197.79 227.49 197.677C227.653 197.379 227.82 197.087 227.994 196.802C228.154 196.541 228.319 196.289 228.487 196.04C228.562 195.927 228.638 195.815 228.715 195.705C228.843 195.524 228.968 195.341 229.1 195.167C229.199 195.036 229.304 194.912 229.405 194.784C229.496 194.671 229.583 194.554 229.676 194.444C229.857 194.228 230.045 194.02 230.234 193.815C230.294 193.75 230.354 193.685 230.415 193.622C230.646 193.379 230.882 193.143 231.125 192.916C231.127 192.914 231.13 192.911 231.133 192.909C231.244 192.806 231.369 192.726 231.483 192.626C231.779 192.367 232.084 192.124 232.395 191.889C232.652 191.695 232.91 191.503 233.177 191.326C233.502 191.11 233.838 190.914 234.177 190.722C234.454 190.566 234.729 190.408 235.015 190.268C235.37 190.095 235.738 189.946 236.107 189.798C236.399 189.681 236.688 189.558 236.989 189.458C237.214 189.383 237.443 189.318 237.672 189.252C237.839 189.204 238.013 189.168 238.182 189.125C238.484 189.048 238.78 188.961 239.09 188.9C239.52 188.815 239.965 188.765 240.409 188.71C240.71 188.673 241.003 188.621 241.31 188.598C241.577 188.578 241.854 188.584 242.128 188.581V185.222C238.47 185.324 235.177 186.235 232.338 187.874C231.915 188.118 231.504 188.381 231.102 188.657C231.032 188.705 230.963 188.755 230.894 188.804C229.73 189.624 228.656 190.577 227.675 191.651C227.567 191.77 227.459 191.889 227.353 192.011C227.062 192.345 226.777 192.685 226.504 193.041C226.419 193.153 226.339 193.272 226.255 193.386C225.801 194.003 225.374 194.653 224.973 195.332C224.826 195.581 224.677 195.83 224.538 196.088C224.36 196.415 224.189 196.749 224.023 197.089C223.856 197.432 223.698 197.785 223.544 198.141C223.392 198.49 223.241 198.839 223.101 199.2C222.884 199.761 222.682 200.336 222.495 200.926C222.406 201.208 222.325 201.498 222.242 201.786C222.098 202.289 221.965 202.802 221.843 203.325C221.783 203.579 221.72 203.831 221.665 204.09C221.505 204.853 221.364 205.633 221.25 206.434C221.222 206.628 221.203 206.829 221.178 207.026C221.092 207.697 221.022 208.379 220.969 209.074C220.95 209.323 220.931 209.572 220.916 209.825C220.863 210.712 220.827 211.611 220.827 212.535C220.827 218.152 221.816 224.079 223.605 229.985C224.499 232.938 225.593 235.886 226.862 238.787C227.497 240.238 228.176 241.677 228.896 243.099C231.055 247.366 233.584 251.482 236.4 255.307C242.033 262.958 248.821 269.448 256.118 273.662C259.263 275.478 262.352 276.79 265.368 277.626C266.764 276.823 268.234 275.978 269.729 275.119C269.58 275.096 269.434 275.082 269.286 275.058Z" fill="#455A64"/>
</g>
</g>
<g id="Group_11">
<g id="Group_12">
<path id="Vector_23" d="M303.508 241.11C303.508 221.552 289.777 197.769 272.839 187.99C264.345 183.086 256.659 182.636 251.106 185.872C249.418 186.856 238.076 193.379 236.38 194.349C230.801 197.54 227.347 204.422 227.347 214.23C227.347 233.788 241.078 257.571 258.016 267.35C266.501 272.249 274.18 272.703 279.732 269.477C281.427 268.493 292.827 261.944 294.539 260.953C300.081 257.746 303.508 250.88 303.508 241.11Z" fill="#AD23EE"/>
<path id="Vector_24" opacity="0.3" d="M303.508 241.11C303.508 221.552 289.777 197.769 272.839 187.99C264.345 183.086 256.659 182.636 251.106 185.872C249.418 186.856 238.076 193.379 236.38 194.349C230.801 197.54 227.347 204.422 227.347 214.23C227.347 233.788 241.078 257.571 258.016 267.35C266.501 272.249 274.18 272.703 279.732 269.477C281.427 268.493 292.827 261.944 294.539 260.953C300.081 257.746 303.508 250.88 303.508 241.11Z" fill="black"/>
</g>
<path id="Vector_25" d="M258.016 196.523C274.954 206.302 288.685 230.085 288.685 249.643C288.685 269.201 274.954 277.129 258.016 267.35C241.078 257.571 227.347 233.788 227.347 214.23C227.347 194.672 241.077 186.744 258.016 196.523Z" fill="#AD23EE"/>
</g>
<g id="Group_13">
<path id="Vector_26" d="M270.999 275.264C271.051 275.268 271.1 275.269 271.152 275.273C271.669 275.312 272.182 275.333 272.691 275.336C272.774 275.336 272.855 275.333 272.937 275.332C273.689 275.327 274.426 275.288 275.142 275.205C275.168 275.202 275.194 275.201 275.22 275.198C275.845 275.123 276.446 274.999 277.041 274.865C277.294 274.807 277.548 274.75 277.796 274.681C278.273 274.551 278.738 274.397 279.194 274.227C279.544 274.095 279.885 273.947 280.223 273.792C280.385 273.718 280.543 273.637 280.702 273.558C282.176 272.822 283.531 271.873 284.74 270.703C282.255 271.416 279.51 271.595 276.562 271.187C274.433 272.411 272.069 273.77 269.734 275.112C270.158 275.17 270.582 275.23 270.999 275.264Z" fill="#263238"/>
<path id="Vector_27" d="M266.289 190.724C266.289 193.041 267.761 196.087 269.466 197.654C284.075 211.077 294.764 232.884 294.764 251.348C294.764 264.793 289.117 274.383 279.896 277.556C281.971 276.853 283.18 276.079 283.274 276.025C284.433 275.354 288.954 272.745 290.064 272.105C297.283 267.944 301.579 259.144 301.579 247.413C301.579 228.949 290.889 207.142 276.281 193.719C274.575 192.152 273.104 189.106 273.104 186.789V159.585L266.289 163.519L262.934 161.582L266.29 163.52V190.724H266.289Z" fill="#37474F"/>
<path id="Vector_28" d="M269.467 197.654C267.761 196.087 266.29 193.041 266.29 190.724V163.519L262.934 161.581V165.455V192.349C262.934 192.737 262.99 193.149 263.069 193.565C263.088 193.667 263.109 193.77 263.133 193.873C263.228 194.289 263.345 194.71 263.503 195.129C263.741 195.76 264.044 196.383 264.391 196.965C264.478 197.11 264.575 197.244 264.667 197.384C264.943 197.803 265.234 198.203 265.546 198.552C265.754 198.784 265.969 198.998 266.187 199.188C266.189 199.19 266.191 199.192 266.193 199.193C266.998 199.897 267.787 200.636 268.568 201.391C268.776 201.592 268.982 201.795 269.188 202C269.87 202.678 270.544 203.371 271.205 204.084C271.303 204.19 271.404 204.291 271.501 204.398C272.242 205.208 272.965 206.044 273.676 206.895C273.86 207.116 274.041 207.339 274.223 207.562C274.811 208.282 275.388 209.015 275.953 209.761C276.088 209.939 276.227 210.114 276.361 210.294C277.028 211.19 277.676 212.104 278.309 213.032C278.459 213.253 278.605 213.477 278.753 213.699C279.269 214.472 279.771 215.254 280.261 216.045C280.402 216.273 280.545 216.498 280.683 216.727C281.267 217.692 281.833 218.667 282.378 219.655C282.486 219.852 282.588 220.05 282.695 220.247C283.145 221.08 283.58 221.92 284 222.767C284.13 223.029 284.261 223.29 284.388 223.553C284.879 224.569 285.352 225.59 285.797 226.619C285.855 226.753 285.907 226.889 285.965 227.023C286.355 227.94 286.724 228.861 287.077 229.785C287.183 230.063 287.288 230.341 287.391 230.619C287.778 231.67 288.148 232.723 288.483 233.78C288.818 234.838 289.118 235.898 289.399 236.957C289.459 237.184 289.52 237.409 289.577 237.636C289.84 238.67 290.08 239.702 290.288 240.732C290.323 240.904 290.352 241.076 290.385 241.248C290.568 242.193 290.727 243.134 290.861 244.072C290.885 244.242 290.914 244.413 290.937 244.583C291.074 245.602 291.177 246.614 291.255 247.621C291.272 247.842 291.285 248.06 291.299 248.28C291.365 249.309 291.41 250.333 291.41 251.345C291.41 257.374 290.219 262.394 288.095 266.258C287.623 267.117 287.105 267.918 286.543 268.661C286.262 269.032 285.971 269.389 285.669 269.731C285.37 270.069 285.061 270.392 284.743 270.7C283.535 271.87 282.18 272.819 280.707 273.554C280.548 273.634 280.388 273.714 280.226 273.789C279.888 273.943 279.548 274.093 279.198 274.224C278.777 274.383 278.347 274.526 277.909 274.651C277.873 274.661 277.835 274.668 277.799 274.678C277.55 274.746 277.298 274.805 277.044 274.862C276.892 274.897 276.745 274.941 276.591 274.973C276.143 275.064 275.687 275.138 275.223 275.196C275.197 275.199 275.17 275.2 275.145 275.203C274.428 275.289 273.69 275.325 272.94 275.33C272.893 275.33 272.85 275.338 272.803 275.338C272.767 275.338 272.73 275.334 272.694 275.334C272.585 275.333 272.48 275.341 272.371 275.338C271.971 275.33 271.564 275.302 271.155 275.271C271.104 275.267 271.054 275.267 271.003 275.263C270.584 275.228 270.159 275.175 269.732 275.116C268.237 275.975 266.767 276.821 265.371 277.623C267.91 278.327 270.396 278.699 272.811 278.699C273.157 278.699 273.487 278.662 273.827 278.647C274.272 278.626 274.735 278.622 275.153 278.579C275.417 278.553 275.668 278.502 275.927 278.467C276.418 278.4 276.904 278.332 277.35 278.241C277.584 278.193 277.812 278.133 278.043 278.078C278.144 278.054 278.225 278.025 278.324 278.001C278.755 277.891 279.189 277.785 279.606 277.649C279.705 277.617 279.805 277.587 279.902 277.553C289.123 274.38 294.77 264.79 294.77 251.345C294.764 232.884 284.075 211.076 269.467 197.654Z" fill="#455A64"/>
</g>
<g id="Group_14">
<path id="Vector_29" d="M250.946 189.24C250.995 189.221 251.045 189.203 251.093 189.181C251.17 189.146 251.248 189.106 251.32 189.064C252.146 188.585 257.441 185.528 258.139 185.121C258.963 184.641 259.472 183.732 259.472 182.478L259.473 151.714L252.657 155.649C252.657 155.658 252.657 175.834 252.657 186.417C252.657 187.854 251.988 188.835 250.946 189.24Z" fill="#37474F"/>
<path id="Vector_30" d="M242.782 185.181C244.379 185.181 246.007 185.336 247.661 185.645C248.572 185.815 249.302 185.248 249.302 184.322V181.264C246.717 181.296 244.327 181.757 242.129 182.561V185.221C242.349 185.215 242.558 185.181 242.782 185.181Z" fill="#37474F"/>
<path id="Vector_31" d="M243.64 188.557C244.432 188.589 245.24 188.662 246.064 188.783C246.843 188.898 247.64 189.064 248.445 189.26C248.493 189.272 248.539 189.276 248.586 189.288C248.616 189.295 248.645 189.298 248.675 189.306C248.945 189.374 249.206 189.414 249.459 189.434C249.483 189.436 249.507 189.436 249.53 189.438C249.757 189.452 249.976 189.445 250.185 189.42C250.224 189.415 250.262 189.409 250.302 189.404C250.512 189.372 250.714 189.325 250.902 189.256C250.917 189.251 250.931 189.244 250.946 189.238C251.988 188.833 252.658 187.852 252.658 186.416C252.658 175.833 252.658 155.657 252.658 155.648L249.302 153.695V157.586V181.262V184.32C249.302 185.247 248.572 185.813 247.661 185.643C246.007 185.334 244.379 185.179 242.782 185.179C242.558 185.179 242.349 185.213 242.128 185.219V188.578C242.366 188.575 242.599 188.563 242.838 188.563C243.107 188.566 243.367 188.546 243.64 188.557Z" fill="#455A64"/>
</g>
<g id="Group_15">
<path id="Vector_32" d="M300.37 259.706C300.37 230.807 280.081 195.666 255.054 181.217C242.555 174.001 231.244 173.319 223.049 178.039C220.752 179.362 211.657 184.614 209.364 185.94C201.175 190.676 196.108 200.813 196.108 215.249C196.108 244.148 216.397 279.289 241.424 293.738C253.919 300.952 265.227 301.636 273.422 296.92C275.722 295.596 284.81 290.345 287.099 289.024C295.296 284.292 300.37 274.151 300.37 259.706Z" fill="#AD23EE"/>
<path id="Vector_33" opacity="0.1" d="M273.46 296.905C291.156 286.687 291.156 253.557 273.459 222.906C255.762 192.255 227.07 175.69 209.374 185.908C191.677 196.125 191.678 229.255 209.375 259.906C227.072 290.557 255.763 307.122 273.46 296.905Z" fill="black"/>
</g>
<g id="Group_16">
<path id="Vector_34" d="M286.755 267.581C286.755 238.682 266.467 203.541 241.439 189.092C228.917 181.862 217.587 181.19 209.386 185.937C208.254 186.592 203.737 189.201 202.605 189.853C194.393 194.581 189.309 204.73 189.309 219.19C189.309 248.089 209.598 283.23 234.625 297.679C247.141 304.905 258.466 305.58 266.666 300.84C267.802 300.183 272.346 297.561 273.486 296.902C281.682 292.168 286.755 282.025 286.755 267.581Z" fill="#F0F0F0"/>
<path id="Vector_35" d="M234.624 193.027C259.651 207.476 279.94 242.617 279.94 271.516C279.94 300.415 259.652 312.128 234.625 297.679C209.598 283.229 189.309 248.089 189.309 219.19C189.309 190.291 209.597 178.577 234.624 193.027Z" fill="#E0E0E0"/>
</g>
<g id="Group_17">
<path id="Vector_36" d="M283.272 271.523C283.272 241.601 262.191 205.087 236.279 190.126C228.65 185.722 221.277 183.488 214.364 183.488C209.288 183.488 204.749 184.711 200.864 186.981C198.604 188.301 189.462 193.527 187.145 194.883C177.838 200.329 172.3 211.791 172.3 227.066C172.3 256.986 193.381 293.5 219.293 308.463C226.923 312.867 234.297 315.1 241.209 315.1C246.319 315.1 250.884 313.86 254.786 311.562C257.015 310.249 266.043 305.088 268.336 303.759C277.698 298.335 283.272 286.848 283.272 271.523Z" fill="#455A64"/>
<path id="Vector_37" d="M241.209 315.1C234.296 315.1 226.923 312.867 219.293 308.463C193.38 293.5 172.3 256.987 172.3 227.066C172.3 205.374 183.461 191.358 200.734 191.358C207.647 191.358 215.02 193.591 222.649 197.995C248.562 212.956 269.642 249.47 269.642 279.392C269.641 301.084 258.482 315.1 241.209 315.1Z" fill="#37474F"/>
<path id="Vector_38" d="M231.077 284.128C227.625 284.128 223.942 283.013 220.132 280.813C207.191 273.34 196.663 255.105 196.663 240.163C196.663 229.33 202.237 222.33 210.863 222.33C214.315 222.33 217.998 223.445 221.807 225.645C234.748 233.117 245.276 251.352 245.276 266.295C245.277 277.129 239.704 284.128 231.077 284.128Z" fill="#263238"/>
</g>
</g>
<g id="Group_18">
<g id="Group_19">
<path id="Vector_39" d="M173.285 335.001C173.285 305.079 152.204 268.565 126.292 253.604C118.663 249.2 111.29 246.967 104.377 246.967C99.301 246.967 94.762 248.19 90.877 250.46C88.617 251.78 79.475 257.006 77.157 258.362C67.85 263.808 62.312 275.27 62.312 290.545C62.312 320.465 83.393 356.979 109.305 371.942C116.935 376.346 124.309 378.58 131.221 378.58C136.331 378.58 140.896 377.34 144.798 375.042C147.027 373.729 156.055 368.567 158.348 367.239C167.712 361.813 173.285 350.326 173.285 335.001Z" fill="#455A64"/>
<path id="Vector_40" d="M131.222 378.578C124.309 378.578 116.936 376.345 109.306 371.94C83.393 356.977 62.313 320.464 62.313 290.543C62.313 268.851 73.474 254.835 90.747 254.835C97.66 254.835 105.033 257.068 112.662 261.472C138.575 276.433 159.655 312.947 159.655 342.869C159.654 364.563 148.495 378.578 131.222 378.578Z" fill="#37474F"/>
</g>
<g id="Group_20">
<path id="Vector_41" d="M156.301 342.866C156.301 313.967 136.012 278.826 110.985 264.377C98.463 257.147 87.133 256.475 78.933 261.222C77.801 261.877 73.284 264.486 72.151 265.138C63.939 269.866 58.855 280.015 58.855 294.475C58.855 323.374 79.144 358.515 104.171 372.964C116.687 380.19 128.012 380.865 136.212 376.125C137.348 375.468 141.892 372.846 143.032 372.187C151.227 367.453 156.301 357.31 156.301 342.866Z" fill="#F0F0F0"/>
<path id="Vector_42" d="M104.17 268.312C129.197 282.761 149.486 317.902 149.486 346.801C149.486 375.7 129.198 387.413 104.171 372.964C79.144 358.515 58.855 323.374 58.855 294.475C58.854 265.576 79.142 253.862 104.17 268.312Z" fill="#E0E0E0"/>
</g>
<g id="Group_21">
<path id="Vector_43" d="M149.485 346.801C149.485 317.902 129.197 282.761 104.169 268.312C91.67 261.096 80.359 260.414 72.164 265.134C69.867 266.457 60.772 271.709 58.479 273.035C50.29 277.771 45.223 287.908 45.223 302.344C45.223 331.243 65.512 366.384 90.539 380.833C103.034 388.047 114.342 388.731 122.537 384.015C124.837 382.691 133.925 377.44 136.214 376.119C144.412 371.387 149.485 361.245 149.485 346.801Z" fill="#AD23EE"/>
<path id="Vector_44" opacity="0.1" d="M90.539 276.181C115.566 290.63 135.855 325.771 135.855 354.67C135.855 383.569 115.567 395.282 90.539 380.833C65.512 366.384 45.223 331.243 45.223 302.344C45.223 273.445 65.511 261.732 90.539 276.181Z" fill="black"/>
</g>
<g id="Group_22">
<path id="Vector_45" d="M57.966 292.625C57.597 292.772 57.229 292.921 56.874 293.095C56.588 293.235 56.312 293.393 56.036 293.549C55.697 293.74 55.36 293.936 55.036 294.153C54.769 294.331 54.511 294.522 54.254 294.717C53.943 294.952 53.637 295.195 53.342 295.454C53.097 295.668 52.859 295.892 52.625 296.123C52.343 296.401 52.068 296.691 51.801 296.992C51.58 297.242 51.364 297.497 51.155 297.763C50.901 298.085 50.659 298.421 50.422 298.766C50.236 299.036 50.053 299.309 49.878 299.593C49.838 299.658 49.802 299.726 49.763 299.792C49.573 300.109 49.391 300.436 49.214 300.77C49.162 300.869 49.112 300.97 49.06 301.071C48.922 301.344 48.783 301.614 48.654 301.897C48.543 302.139 48.443 302.394 48.338 302.645C48.271 302.805 48.203 302.963 48.139 303.126C48.08 303.277 48.019 303.427 47.963 303.581C47.844 303.902 47.733 304.232 47.625 304.564C47.533 304.849 47.444 305.138 47.359 305.432C47.205 305.961 47.065 306.502 46.937 307.055C46.852 307.43 46.775 307.813 46.701 308.2C46.661 308.409 46.618 308.614 46.581 308.826C46.542 309.055 46.501 309.283 46.466 309.515C46.382 310.08 46.321 310.667 46.263 311.255C46.235 311.536 46.194 311.804 46.172 312.09C46.164 312.195 46.158 312.302 46.151 312.408C46.085 313.366 46.041 314.345 46.041 315.361C46.041 319.277 46.554 323.348 47.488 327.451C51.228 343.832 61.871 360.732 74.894 370.4C76.453 371.556 78.034 372.647 79.654 373.582C79.879 373.712 80.102 373.826 80.326 373.95C80.707 374.161 81.089 374.375 81.468 374.571C81.762 374.723 82.052 374.858 82.344 375C82.656 375.152 82.969 375.306 83.279 375.446C83.598 375.591 83.914 375.723 84.23 375.856C84.507 375.972 84.783 376.088 85.059 376.196C85.387 376.324 85.712 376.444 86.037 376.559C86.301 376.653 86.564 376.742 86.826 376.828C87.146 376.932 87.465 377.033 87.781 377.125C88.061 377.206 88.34 377.279 88.619 377.351C88.907 377.426 89.196 377.502 89.482 377.566C89.865 377.652 90.244 377.722 90.623 377.789C90.797 377.82 90.973 377.86 91.146 377.887C91.297 377.911 91.445 377.92 91.596 377.941C93.931 376.599 96.294 375.24 98.424 374.016C94.711 373.503 90.685 372.075 86.473 369.645C67.9 358.924 52.85 332.867 52.85 311.425C52.85 302.742 55.33 296.161 59.509 292.102C59.291 292.165 59.065 292.214 58.85 292.286C58.547 292.385 58.258 292.508 57.966 292.625Z" fill="#263238"/>
<g id="Group_23">
<path id="Vector_46" d="M63.987 285.388C62.948 285.768 61.939 286.2 60.998 286.744C59.835 287.416 55.314 290.027 54.207 290.665C54.2 290.669 54.201 290.69 54.197 290.701C57.035 289.061 60.328 288.151 63.987 288.049V285.388Z" fill="#37474F"/>
<path id="Vector_47" d="M91.144 377.885C90.972 377.858 90.797 377.818 90.623 377.788C90.244 377.72 89.864 377.651 89.479 377.564C89.193 377.5 88.905 377.423 88.617 377.349C88.428 377.3 88.243 377.262 88.053 377.208C87.963 377.183 87.87 377.149 87.779 377.123C87.462 377.031 87.144 376.93 86.825 376.826C86.562 376.74 86.299 376.65 86.034 376.556C85.71 376.441 85.385 376.322 85.059 376.194C84.783 376.086 84.505 375.97 84.227 375.853C83.912 375.72 83.596 375.589 83.279 375.445C82.967 375.304 82.653 375.149 82.339 374.996C82.049 374.855 81.76 374.72 81.468 374.57C81.085 374.372 80.698 374.156 80.312 373.941C80.094 373.82 79.878 373.712 79.659 373.586C78.096 372.684 76.57 371.635 75.063 370.526C70.977 367.521 67.113 363.838 63.632 359.646C60.774 356.204 58.167 352.441 55.886 348.49C52.084 341.905 49.189 334.797 47.552 327.775C47.525 327.661 47.51 327.548 47.485 327.434C46.55 323.336 46.037 319.272 46.037 315.367C46.037 314.429 46.077 313.518 46.137 312.621C46.145 312.49 46.149 312.355 46.158 312.225C46.165 312.134 46.175 312.046 46.182 311.956C46.245 311.205 46.324 310.468 46.428 309.749C46.45 309.596 46.47 309.441 46.494 309.289C46.531 309.05 46.581 308.823 46.622 308.588C46.682 308.255 46.747 307.928 46.816 307.602C46.889 307.252 46.956 306.896 47.04 306.556C47.131 306.184 47.243 305.834 47.346 305.474C47.385 305.339 47.42 305.201 47.461 305.067C47.477 305.015 47.49 304.96 47.506 304.909C47.598 304.614 47.688 304.318 47.788 304.032C47.911 303.678 48.051 303.344 48.187 303.004C48.361 302.568 48.536 302.134 48.729 301.721C48.869 301.421 49.02 301.135 49.171 300.848C49.231 300.733 49.289 300.617 49.35 300.504C49.513 300.206 49.68 299.914 49.854 299.629C50.014 299.368 50.179 299.116 50.347 298.867C50.422 298.754 50.498 298.642 50.575 298.532C50.703 298.352 50.828 298.168 50.96 297.994C51.059 297.863 51.163 297.739 51.265 297.611C51.356 297.498 51.443 297.381 51.536 297.271C51.717 297.054 51.905 296.847 52.094 296.642C52.154 296.577 52.214 296.512 52.275 296.449C52.506 296.206 52.742 295.969 52.985 295.742C52.988 295.74 52.99 295.738 52.993 295.735C53.104 295.632 53.229 295.552 53.343 295.453C53.639 295.194 53.944 294.951 54.255 294.716C54.512 294.522 54.77 294.33 55.037 294.152C55.362 293.936 55.698 293.74 56.037 293.548C56.314 293.392 56.589 293.234 56.875 293.094C57.23 292.921 57.598 292.772 57.967 292.624C58.259 292.507 58.548 292.384 58.849 292.283C59.074 292.208 59.303 292.143 59.532 292.077C59.699 292.029 59.873 291.994 60.043 291.95C60.345 291.873 60.641 291.786 60.95 291.725C61.38 291.64 61.825 291.59 62.269 291.535C62.57 291.498 62.863 291.446 63.17 291.423C63.437 291.403 63.714 291.409 63.988 291.406V288.047C60.329 288.149 57.037 289.06 54.198 290.699C53.775 290.943 53.365 291.207 52.962 291.482C52.892 291.53 52.823 291.58 52.754 291.629C51.59 292.449 50.516 293.402 49.535 294.476C49.427 294.595 49.319 294.714 49.213 294.836C48.922 295.17 48.637 295.51 48.364 295.866C48.279 295.978 48.199 296.097 48.115 296.211C47.661 296.828 47.234 297.478 46.833 298.157C46.686 298.407 46.537 298.655 46.398 298.913C46.22 299.24 46.049 299.574 45.883 299.914C45.716 300.257 45.558 300.61 45.404 300.966C45.252 301.315 45.1 301.664 44.961 302.025C44.744 302.586 44.542 303.161 44.355 303.751C44.265 304.033 44.185 304.323 44.102 304.611C43.958 305.115 43.825 305.627 43.703 306.15C43.643 306.404 43.58 306.656 43.525 306.914C43.365 307.677 43.225 308.457 43.11 309.258C43.082 309.452 43.063 309.653 43.038 309.85C42.952 310.521 42.882 311.203 42.829 311.898C42.81 312.147 42.791 312.396 42.775 312.648C42.722 313.535 42.686 314.434 42.686 315.358C42.686 320.975 43.675 326.902 45.464 332.808C46.358 335.761 47.452 338.709 48.721 341.61C49.356 343.061 50.035 344.5 50.755 345.922C52.914 350.189 55.443 354.305 58.259 358.13C63.892 365.781 70.68 372.271 77.977 376.485C81.122 378.301 84.211 379.613 87.227 380.449C88.623 379.646 90.093 378.801 91.588 377.941C91.439 377.923 91.293 377.909 91.144 377.885Z" fill="#455A64"/>
</g>
</g>
<g id="Group_24">
<g id="Group_25">
<path id="Vector_48" d="M121.208 346.214C121.208 326.656 107.477 302.873 90.539 293.094C82.045 288.19 74.359 287.74 68.806 290.977C67.118 291.961 55.776 298.484 54.08 299.454C48.501 302.645 45.047 309.526 45.047 319.334C45.047 338.892 58.778 362.675 75.716 372.454C84.201 377.353 91.881 377.807 97.433 374.581C99.128 373.596 110.528 367.048 112.24 366.057C117.781 362.85 121.208 355.984 121.208 346.214Z" fill="#AD23EE"/>
<path id="Vector_49" opacity="0.3" d="M121.208 346.214C121.208 326.656 107.477 302.873 90.539 293.094C82.045 288.19 74.359 287.74 68.806 290.977C67.118 291.961 55.776 298.484 54.08 299.454C48.501 302.645 45.047 309.526 45.047 319.334C45.047 338.892 58.778 362.675 75.716 372.454C84.201 377.353 91.881 377.807 97.433 374.581C99.128 373.596 110.528 367.048 112.24 366.057C117.781 362.85 121.208 355.984 121.208 346.214Z" fill="black"/>
</g>
<path id="Vector_50" d="M97.4002 374.593C109.377 367.678 109.376 345.255 97.3992 324.511C85.422 303.767 66.0037 292.556 54.0272 299.471C42.0506 306.385 42.051 328.808 54.0282 349.552C66.0053 370.296 85.4236 381.507 97.4002 374.593Z" fill="#AD23EE"/>
<path id="Vector_51" d="M91.3435 366.935C100.638 361.569 100.638 344.167 91.3428 328.068C82.0476 311.968 66.9774 303.268 57.6825 308.634C48.3876 314.001 48.3879 331.402 57.6832 347.502C66.9784 363.601 82.0486 372.302 91.3435 366.935Z" fill="#263238"/>
<g id="Group_26">
<path id="Vector_52" d="M87.536 324.331L73.459 338.391L56.647 309.264C60.942 306.764 66.898 307.117 73.459 310.908C78.711 313.962 83.576 318.727 87.536 324.331Z" fill="#455A64"/>
<path id="Vector_53" d="M97.267 352.149C97.267 359.733 94.599 365.068 90.287 367.535L73.459 338.391L87.536 324.331C93.425 332.737 97.267 343.039 97.267 352.149Z" fill="#37474F"/>
<path id="Vector_54" d="M90.287 367.535C85.975 370.035 80.036 369.682 73.459 365.891C68.191 362.854 63.342 358.072 59.399 352.452L73.459 338.392L90.287 367.535Z" fill="#455A64"/>
<path id="Vector_55" d="M73.459 338.391L59.399 352.451C53.493 344.045 49.668 333.76 49.668 324.666C49.668 317.066 52.336 311.747 56.648 309.264L73.459 338.391Z" fill="#37474F"/>
</g>
</g>
<g id="Group_27">
<path id="Vector_56" d="M92.858 378.091C92.91 378.095 92.959 378.096 93.011 378.1C93.528 378.139 94.041 378.16 94.55 378.163C94.633 378.163 94.714 378.16 94.796 378.16C95.548 378.155 96.285 378.116 97.001 378.033C97.027 378.03 97.053 378.029 97.079 378.026C97.704 377.951 98.305 377.827 98.9 377.693C99.153 377.635 99.407 377.578 99.655 377.509C100.132 377.379 100.597 377.225 101.053 377.055C101.403 376.923 101.744 376.775 102.082 376.62C102.244 376.546 102.402 376.465 102.561 376.386C104.035 375.65 105.39 374.701 106.599 373.531C104.114 374.244 101.369 374.423 98.421 374.015C96.292 375.24 93.928 376.598 91.593 377.94C92.017 377.997 92.44 378.056 92.858 378.091Z" fill="#263238"/>
<path id="Vector_57" d="M88.148 293.551C88.148 295.868 89.62 298.914 91.325 300.481C105.933 313.904 116.623 335.711 116.623 354.175C116.623 367.62 110.976 377.211 101.755 380.383C103.83 379.68 105.039 378.906 105.133 378.852C106.292 378.182 110.813 375.572 111.923 374.932C119.142 370.771 123.438 361.971 123.438 350.24C123.438 331.776 112.748 309.969 98.14 296.546C96.434 294.979 94.963 291.933 94.963 289.616V262.411L88.148 266.345L84.793 264.408L88.149 266.346L88.148 293.551Z" fill="#37474F"/>
<path id="Vector_58" d="M91.326 300.48C89.62 298.913 88.149 295.867 88.149 293.55V266.346L84.793 264.408V268.282V295.176C84.793 295.564 84.849 295.976 84.928 296.392C84.947 296.494 84.969 296.597 84.992 296.7C85.087 297.116 85.204 297.537 85.362 297.956C85.6 298.587 85.903 299.21 86.25 299.792C86.337 299.937 86.434 300.071 86.526 300.211C86.802 300.63 87.093 301.03 87.406 301.379C87.614 301.611 87.829 301.825 88.047 302.015C88.049 302.017 88.051 302.019 88.053 302.02C88.858 302.724 89.647 303.463 90.428 304.218C90.636 304.419 90.842 304.622 91.048 304.827C91.73 305.505 92.404 306.198 93.065 306.911C93.163 307.017 93.264 307.118 93.361 307.225C94.102 308.035 94.825 308.871 95.536 309.722C95.72 309.942 95.901 310.166 96.083 310.389C96.671 311.109 97.248 311.842 97.813 312.588C97.948 312.766 98.087 312.941 98.221 313.121C98.888 314.017 99.536 314.931 100.168 315.859C100.318 316.08 100.464 316.304 100.612 316.526C101.127 317.299 101.63 318.081 102.12 318.872C102.261 319.099 102.404 319.325 102.542 319.554C103.126 320.519 103.692 321.495 104.237 322.483C104.345 322.679 104.447 322.878 104.554 323.075C105.004 323.908 105.439 324.748 105.859 325.595C105.989 325.857 106.12 326.118 106.248 326.381C106.738 327.397 107.212 328.418 107.657 329.447C107.715 329.581 107.767 329.717 107.825 329.851C108.215 330.768 108.584 331.689 108.937 332.613C109.043 332.891 109.148 333.169 109.25 333.447C109.637 334.498 110.007 335.551 110.342 336.607C110.677 337.665 110.976 338.725 111.258 339.784C111.318 340.011 111.379 340.236 111.436 340.463C111.699 341.497 111.939 342.529 112.147 343.559C112.182 343.731 112.211 343.903 112.244 344.075C112.427 345.02 112.586 345.962 112.72 346.899C112.744 347.069 112.773 347.24 112.796 347.41C112.933 348.429 113.036 349.441 113.114 350.448C113.131 350.668 113.144 350.888 113.158 351.107C113.224 352.136 113.269 353.16 113.269 354.172C113.269 360.201 112.079 365.221 109.954 369.085C109.482 369.944 108.964 370.745 108.402 371.488C108.121 371.859 107.83 372.216 107.528 372.558C107.229 372.896 106.921 373.219 106.602 373.527C105.394 374.697 104.039 375.646 102.565 376.381C102.406 376.461 102.246 376.541 102.084 376.616C101.746 376.77 101.406 376.92 101.056 377.051C100.635 377.21 100.205 377.353 99.767 377.478C99.731 377.488 99.693 377.495 99.657 377.505C99.408 377.573 99.156 377.632 98.902 377.689C98.75 377.724 98.603 377.768 98.449 377.8C98.001 377.891 97.545 377.965 97.081 378.023C97.055 378.026 97.029 378.027 97.003 378.03C96.286 378.116 95.548 378.152 94.798 378.157C94.751 378.157 94.708 378.165 94.661 378.165C94.625 378.165 94.588 378.161 94.552 378.161C94.444 378.16 94.338 378.168 94.229 378.166C93.829 378.158 93.422 378.13 93.013 378.099C92.962 378.095 92.912 378.095 92.861 378.091C92.442 378.056 92.017 378.003 91.59 377.944C90.095 378.803 88.625 379.649 87.229 380.452C89.768 381.156 92.254 381.528 94.669 381.528C95.015 381.528 95.345 381.491 95.685 381.476C96.13 381.456 96.593 381.451 97.011 381.408C97.275 381.382 97.526 381.331 97.785 381.296C98.276 381.229 98.762 381.161 99.208 381.07C99.442 381.022 99.67 380.962 99.9 380.907C100.001 380.883 100.082 380.855 100.181 380.83C100.612 380.72 101.046 380.614 101.463 380.478C101.562 380.446 101.662 380.416 101.76 380.382C110.981 377.209 116.628 367.619 116.628 354.174C116.623 335.711 105.934 313.903 91.326 300.48Z" fill="#455A64"/>
</g>
<g id="Group_28">
<path id="Vector_59" d="M72.804 292.067C72.853 292.048 72.903 292.03 72.951 292.008C73.028 291.973 73.106 291.933 73.178 291.891C74.004 291.412 79.299 288.355 79.997 287.948C80.821 287.468 81.33 286.559 81.33 285.305L81.331 254.541L74.515 258.476C74.515 258.485 74.515 278.661 74.515 289.244C74.516 290.681 73.847 291.662 72.804 292.067Z" fill="#37474F"/>
<path id="Vector_60" d="M64.641 288.008C66.238 288.008 67.866 288.163 69.52 288.472C70.431 288.642 71.161 288.075 71.161 287.149V284.091C68.576 284.123 66.186 284.584 63.988 285.388V288.048C64.208 288.042 64.417 288.008 64.641 288.008Z" fill="#37474F"/>
<path id="Vector_61" d="M65.499 291.384C66.291 291.416 67.098 291.489 67.923 291.61C68.702 291.725 69.499 291.891 70.304 292.087C70.352 292.099 70.398 292.103 70.445 292.115C70.475 292.123 70.504 292.125 70.534 292.133H70.535C70.805 292.201 71.065 292.241 71.318 292.261C71.342 292.263 71.365 292.264 71.389 292.265C71.616 292.279 71.835 292.272 72.044 292.247C72.083 292.243 72.121 292.236 72.16 292.231C72.37 292.199 72.572 292.152 72.76 292.083C72.775 292.077 72.789 292.071 72.804 292.065C73.847 291.66 74.516 290.679 74.516 289.243C74.516 278.66 74.516 258.484 74.516 258.475L71.16 256.522V260.413V284.089V287.147C71.16 288.074 70.43 288.64 69.519 288.47C67.865 288.161 66.237 288.006 64.64 288.006C64.416 288.006 64.207 288.04 63.986 288.046V291.405C64.224 291.402 64.457 291.39 64.695 291.39C64.965 291.393 65.226 291.373 65.499 291.384Z" fill="#455A64"/>
</g>
</g>
<g id="Group_29">
<path id="Vector_62" d="M76.645 239.702C75.412 238.99 73.708 239.093 71.826 240.179C68.062 242.352 65.011 247.637 65.011 251.983C65.011 254.172 65.785 255.705 67.034 256.41L94.268 272.134L103.873 255.421L76.645 239.702Z" fill="#AD23EE"/>
<path id="Vector_63" opacity="0.3" d="M76.645 239.702C75.412 238.99 73.708 239.093 71.826 240.179C68.062 242.352 65.011 247.637 65.011 251.983C65.011 254.172 65.785 255.705 67.034 256.41L94.268 272.134L103.873 255.421L76.645 239.702Z" fill="black"/>
<path id="Vector_64" opacity="0.3" d="M65.829 247.846C65.324 249.237 65.011 250.652 65.011 251.983C65.011 254.172 65.785 255.705 67.034 256.41L94.268 272.134L97.664 266.225L65.829 247.846Z" fill="black"/>
<path id="Vector_65" d="M92.271 267.723C92.271 263.377 95.322 258.092 99.086 255.918C100.951 254.841 102.641 254.73 103.872 255.422C105.125 256.126 105.901 257.66 105.901 259.853C105.901 264.199 102.85 269.484 99.086 271.657C97.204 272.744 95.5 272.846 94.267 272.134C93.034 271.423 92.271 269.896 92.271 267.723Z" fill="#AD23EE"/>
<path id="Vector_66" opacity="0.2" d="M92.271 267.723C92.271 263.377 95.322 258.092 99.086 255.918C100.951 254.841 102.641 254.73 103.872 255.422C105.125 256.126 105.901 257.66 105.901 259.853C105.901 264.199 102.85 269.484 99.086 271.657C97.204 272.744 95.5 272.846 94.267 272.134C93.034 271.423 92.271 269.896 92.271 267.723Z" fill="black"/>
<path id="Vector_67" d="M95.221 266.02C95.221 263.554 96.952 260.556 99.087 259.324C100.145 258.713 101.104 258.65 101.802 259.043C102.513 259.442 102.953 260.313 102.953 261.557C102.953 264.022 101.222 267.02 99.087 268.253C98.019 268.869 97.053 268.928 96.353 268.524C95.654 268.119 95.221 267.253 95.221 266.02Z" fill="#37474F"/>
<path id="Vector_68" d="M101.144 260.542C101.144 259.833 100.988 259.261 100.733 258.813C100.232 258.828 99.679 258.982 99.087 259.323C96.952 260.556 95.221 263.554 95.221 266.019C95.221 266.729 95.378 267.3 95.633 267.749C96.134 267.733 96.687 267.579 97.278 267.238C99.413 266.006 101.144 263.008 101.144 260.542Z" fill="#263238"/>
</g>
<g id="Group_30">
<path id="Vector_69" d="M253.839 137.399C252.606 136.687 250.902 136.79 249.02 137.876C245.256 140.049 242.205 145.334 242.205 149.68C242.205 151.869 242.979 153.402 244.228 154.107L271.463 169.831L281.068 153.118L253.839 137.399Z" fill="#AD23EE"/>
<path id="Vector_70" opacity="0.3" d="M253.839 137.399C252.606 136.687 250.902 136.79 249.02 137.876C245.256 140.049 242.205 145.334 242.205 149.68C242.205 151.869 242.979 153.402 244.228 154.107L271.463 169.831L281.068 153.118L253.839 137.399Z" fill="black"/>
<path id="Vector_71" opacity="0.3" d="M243.023 145.543C242.518 146.934 242.205 148.349 242.205 149.68C242.205 151.869 242.979 153.402 244.228 154.107L271.463 169.831L274.859 163.922L243.023 145.543Z" fill="black"/>
<path id="Vector_72" d="M269.466 165.419C269.466 161.073 272.517 155.788 276.281 153.615C278.146 152.538 279.836 152.427 281.067 153.119C282.32 153.823 283.096 155.357 283.096 157.55C283.096 161.896 280.045 167.181 276.281 169.355C274.399 170.442 272.695 170.544 271.462 169.832C270.229 169.12 269.466 167.593 269.466 165.419Z" fill="#AD23EE"/>
<path id="Vector_73" opacity="0.2" d="M269.466 165.419C269.466 161.073 272.517 155.788 276.281 153.615C278.146 152.538 279.836 152.427 281.067 153.119C282.32 153.823 283.096 155.357 283.096 157.55C283.096 161.896 280.045 167.181 276.281 169.355C274.399 170.442 272.695 170.544 271.462 169.832C270.229 169.12 269.466 167.593 269.466 165.419Z" fill="black"/>
<path id="Vector_74" d="M272.415 163.717C272.415 161.252 274.146 158.253 276.281 157.021C277.339 156.41 278.298 156.347 278.996 156.74C279.707 157.139 280.147 158.01 280.147 159.254C280.147 161.719 278.416 164.718 276.281 165.95C275.213 166.566 274.247 166.625 273.547 166.221C272.848 165.816 272.415 164.949 272.415 163.717Z" fill="#37474F"/>
<path id="Vector_75" d="M278.338 158.239C278.338 157.53 278.182 156.958 277.927 156.51C277.426 156.525 276.872 156.679 276.281 157.02C274.146 158.253 272.415 161.251 272.415 163.716C272.415 164.426 272.572 164.997 272.827 165.446C273.328 165.43 273.881 165.276 274.472 164.935C276.607 163.703 278.338 160.705 278.338 158.239Z" fill="#263238"/>
</g>
<g id="Group_31">
<path id="Vector_76" d="M274.812 80.595L245.414 63.618C243.443 59.912 241.201 56.549 238.67 53.548C254.454 56.278 266.929 65.842 274.812 80.595Z" fill="#AD23EE"/>
<path id="Vector_77" opacity="0.2" d="M274.812 80.595L245.414 63.618C243.443 59.912 241.201 56.549 238.67 53.548C254.454 56.278 266.929 65.842 274.812 80.595Z" fill="black"/>
</g>
<g id="Group_32">
<path id="Vector_78" d="M269.374 153.775C270.866 145.597 271.68 137.508 271.68 129.666C271.68 74.979 233.287 52.813 185.927 80.156C138.567 107.499 100.174 173.998 100.174 228.685C100.174 236.537 100.99 243.693 102.485 250.154L91.43 256.536C90.104 249.939 89.401 242.72 89.401 234.904C89.401 173.347 132.616 98.494 185.926 67.716C239.236 36.938 282.452 61.889 282.452 123.446C282.452 131.262 281.748 139.294 280.423 147.421L269.396 153.787" fill="#37474F"/>
<path id="Vector_79" d="M269.377 153.777C270.87 145.598 271.684 137.508 271.684 129.664C271.684 93.595 254.978 71.682 230.01 68.771C237.82 79.185 242.304 94.065 242.304 112.759C242.304 120.586 241.493 128.659 240.006 136.82L269.377 153.777Z" fill="#263238"/>
<path id="Vector_80" d="M252.429 59.984C235.109 50.98 211.695 52.843 185.932 67.722C132.615 98.494 89.404 173.344 89.404 234.906C89.404 242.717 90.109 249.948 91.429 256.529L62.067 239.588C60.729 232.989 60.024 225.757 60.024 217.946C60.024 156.384 103.235 81.534 156.552 50.762C183.184 35.376 207.284 33.93 224.749 44C229.214 46.587 245.703 56.115 252.429 59.984Z" fill="#455A64"/>
<path id="Vector_81" d="M76.417 231.206C75.69 231.206 74.915 230.971 74.113 230.508C71.389 228.935 69.172 225.096 69.172 221.95C69.172 219.669 70.345 218.196 72.161 218.196C72.888 218.196 73.663 218.431 74.465 218.894C77.189 220.467 79.406 224.306 79.406 227.451C79.406 229.733 78.233 231.206 76.417 231.206Z" fill="#263238"/>
</g>
<g id="Group_33">
<g id="Group_34">
<path id="Vector_82" d="M256.786 54.09C248.74 49.679 239.411 47.31 229.034 47.31C214.299 47.31 198.587 52.065 182.316 61.449C144.674 83.181 111.823 126.247 94.719 171.663L65.339 154.704C82.443 109.287 115.294 66.221 152.936 44.489C169.208 35.106 184.919 30.333 199.654 30.333C210.429 30.333 220.102 32.9 228.383 37.673C233.029 40.368 250.567 50.492 256.786 54.09Z" fill="#AD23EE"/>
<path id="Vector_83" opacity="0.6" d="M256.786 54.09C248.74 49.679 239.411 47.31 229.034 47.31C214.299 47.31 198.587 52.065 182.316 61.449C144.674 83.181 111.823 126.247 94.719 171.663L65.339 154.704C82.443 109.287 115.294 66.221 152.936 44.489C169.208 35.106 184.919 30.333 199.654 30.333C210.429 30.333 220.102 32.9 228.383 37.673C233.029 40.368 250.567 50.492 256.786 54.09Z" fill="white"/>
</g>
<g id="Group_35">
<path id="Vector_84" d="M274.803 80.586C265.383 62.958 249.392 52.734 229.034 52.734C215.257 52.734 200.45 57.236 185.028 66.149C148.127 87.447 115.963 129.826 99.42 174.375L94.719 171.663C111.823 126.247 144.674 83.18 182.316 61.449C198.588 52.066 214.299 47.31 229.034 47.31C250.495 47.31 267.544 57.453 278.012 75.062L274.803 80.586Z" fill="#AD23EE"/>
</g>
</g>
</g>
</g>
</g>
<g id="music-notes">
<g id="Musical_Notes">
<path id="Musical_note_4_" d="M401.049 64.322L396.148 80.47C395.752 80.179 395.313 79.935 394.815 79.785C392.479 79.08 390.015 80.402 389.311 82.738C388.607 85.074 389.93 87.538 392.265 88.242C394.601 88.946 397.065 87.624 397.769 85.289L402.167 70.817L417.899 71.403L417.906 71.41L417.9 71.408L413.571 85.76C413.175 85.468 412.735 85.224 412.237 85.074C409.901 84.369 407.437 85.691 406.733 88.027C406.029 90.363 407.352 92.827 409.688 93.532C412.022 94.235 414.485 92.915 415.191 90.582H415.193L422.422 66.619L401.049 64.322Z" fill="#BE00AB"/>
<path id="Musical_note_1_" d="M389.232 311.77L384.332 327.918C383.936 327.627 383.497 327.383 382.999 327.233C380.663 326.528 378.199 327.85 377.495 330.186C376.791 332.522 378.114 334.986 380.449 335.69C382.785 336.394 385.249 335.072 385.953 332.737L390.351 318.265L406.083 318.851L406.09 318.858L406.084 318.856L401.755 333.208C401.359 332.916 400.919 332.672 400.421 332.522C398.085 331.817 395.621 333.139 394.917 335.475C394.213 337.811 395.536 340.275 397.872 340.98C400.207 341.683 402.669 340.363 403.375 338.03H403.377L410.606 314.067L389.232 311.77Z" fill="#BE00AB"/>
<path id="Musical_note_2_" d="M358.12 121.591C358.971 121.128 360.181 120.851 361.294 120.799C362.763 120.73 364.229 120.984 365.659 121.297C367.577 121.716 369.491 122.25 371.453 122.291C373.416 122.332 375.487 121.81 376.86 120.407C375.717 120.517 374.55 120.363 373.475 119.961C370.894 118.996 368.814 116.309 366.485 114.836C363.019 112.642 359.587 112.816 355.366 113.887C355.376 117.484 355.296 121.09 355.26 124.689C355.232 127.514 355.203 130.339 355.175 133.163C355.172 133.431 355.039 137.006 355.039 137.006C354.006 136.431 352.604 136.241 351.892 136.235C348.544 136.206 345.808 138.897 345.781 142.244C345.754 145.592 348.446 148.328 351.793 148.355C355.14 148.383 357.876 145.692 357.904 142.346L358.12 121.591Z" fill="#BE00AB"/>
<path id="Musical_note_3_" d="M455.954 273.116C456.9 272.907 458.139 272.977 459.223 273.235C460.654 273.576 461.992 274.227 463.279 274.924C465.006 275.859 466.696 276.902 468.571 277.486C470.446 278.069 472.58 278.142 474.288 277.175C473.16 276.964 472.081 276.492 471.159 275.808C468.947 274.165 467.693 271.007 465.864 268.945C463.142 265.875 459.796 265.092 455.444 264.95C454.457 268.409 453.38 271.851 452.347 275.299C451.536 278.005 450.726 280.711 449.915 283.417C449.838 283.674 448.719 287.072 448.719 287.072C447.886 286.233 446.592 285.662 445.909 285.458C442.7 284.502 439.325 286.328 438.371 289.537C437.417 292.746 439.245 296.121 442.452 297.075C445.66 298.03 449.035 296.203 449.99 292.996L455.954 273.116Z" fill="#BE00AB"/>
<path id="Musical_note_5_" d="M312.746 57.443C313.119 56.459 313.918 55.376 314.798 54.545C315.958 53.448 317.345 52.62 318.743 51.866C320.619 50.854 322.571 49.94 324.216 48.584C325.861 47.229 327.196 45.334 327.333 43.207C326.47 44.106 325.401 44.805 324.231 45.235C321.423 46.267 317.81 45.528 314.851 45.962C310.445 46.609 307.744 49.181 305.028 53.049C307.582 56.002 310.067 59.027 312.584 62.015C314.559 64.36 316.535 66.705 318.51 69.05C318.698 69.273 321.118 72.31 321.118 72.31C319.861 72.567 318.572 73.403 317.981 73.902C315.205 76.247 314.856 80.398 317.203 83.173C319.55 85.947 323.701 86.295 326.475 83.949C329.25 81.603 329.598 77.453 327.253 74.678L312.746 57.443Z" fill="#BE00AB"/>
</g>
</g>
<g id="buttons">
<g id="buttons_2">
<g id="Controls_1_">
<g id="Controls">
<g id="Play_Pause">
<g id="Box_1_">
<g id="Speech_Bubble_3_">
<g id="Group_36">
<path id="XMLID_286_" d="M401.031 153.477L374.816 168.618C374.351 168.886 373.974 169.539 373.974 170.076V200.322C373.974 200.859 374.353 201.506 374.821 201.77L377.836 203.504C378.303 203.768 379.059 203.764 379.524 203.496L405.739 188.355C406.204 188.087 406.581 187.434 406.581 186.897V156.609C406.581 156.072 406.202 155.423 405.735 155.16L402.72 153.47C402.251 153.205 401.496 153.209 401.031 153.477Z" fill="#2B27DE"/>
<path id="XMLID_285_" d="M378.682 203.01V172.722C378.682 172.185 379.059 171.533 379.524 171.264L405.739 156.123C406.204 155.855 406.581 156.072 406.581 156.609V186.897C406.581 187.434 406.204 188.086 405.739 188.355L379.524 203.496C379.058 203.764 378.682 203.546 378.682 203.01Z" fill="#2B27DE"/>
<path id="XMLID_284_" d="M378.682 203.01V172.722C378.682 172.185 379.059 171.533 379.524 171.264L405.739 156.123C406.204 155.855 406.581 156.072 406.581 156.609V186.897C406.581 187.434 406.204 188.086 405.739 188.355L379.524 203.496C379.058 203.764 378.682 203.546 378.682 203.01Z" fill="#2B27DE"/>
<path id="XMLID_283_" opacity="0.2" d="M379.523 203.496C379.075 203.756 378.257 203.765 377.834 203.506L374.821 201.77C374.355 201.51 373.974 200.859 373.974 200.322V170.076C373.974 169.796 374.079 169.489 374.242 169.217L378.931 171.894C378.776 172.155 378.682 172.454 378.682 172.722V203.008C378.682 203.5 379.028 203.783 379.523 203.496Z" fill="black"/>
<path id="XMLID_282_" opacity="0.4" d="M406.569 156.456C406.503 156.032 406.157 155.881 405.737 156.122L379.525 171.264C379.292 171.4 379.082 171.629 378.93 171.894L374.237 169.217C374.389 168.964 374.591 168.747 374.816 168.618L401.032 153.476C401.495 153.208 402.249 153.204 402.719 153.468L405.732 155.157C406.157 155.399 406.511 155.955 406.569 156.456Z" fill="white"/>
</g>
</g>
</g>
<path id="Vector_85" d="M402.902 173.786C402.902 181.412 398.266 190.271 392.546 193.573C386.827 196.875 382.19 193.37 382.19 185.744C382.19 178.118 386.826 169.259 392.546 165.957C398.266 162.655 402.902 166.161 402.902 173.786Z" fill="#FAFAFA"/>
<g id="XMLID_425_">
<path id="XMLID_2135_" d="M391.147 176.254L391.144 185.078C391.144 185.482 390.861 185.973 390.511 186.175L388.811 187.158C388.462 187.36 388.178 187.197 388.178 186.793V177.971C388.178 177.567 388.461 177.076 388.811 176.874L390.514 175.89C390.864 175.687 391.147 175.851 391.147 176.254Z" fill="#455A64"/>
<path id="XMLID_426_" d="M397.083 172.826L397.08 181.65C397.08 182.054 396.797 182.545 396.447 182.747L394.747 183.73C394.398 183.932 394.114 183.769 394.114 183.365V174.543C394.114 174.139 394.397 173.648 394.747 173.446L396.45 172.462C396.8 172.259 397.083 172.422 397.083 172.826Z" fill="#455A64"/>
</g>
</g>
<g id="Next">
<g id="Box_2_">
<g id="Speech_Bubble_8_">
<g id="Group_37">
<path id="XMLID_292_" d="M431.466 139.659L410.494 151.772C410.122 151.987 409.821 152.509 409.821 152.938V177.135C409.821 177.564 410.125 178.082 410.498 178.293L412.91 179.68C413.284 179.891 413.888 179.888 414.26 179.673L435.232 167.56C435.604 167.345 435.905 166.823 435.905 166.394V142.164C435.905 141.735 435.602 141.215 435.228 141.004L432.816 139.652C432.443 139.441 431.838 139.444 431.466 139.659Z" fill="#2B27DE"/>
<path id="XMLID_291_" d="M413.587 179.285V155.054C413.587 154.625 413.888 154.103 414.26 153.888L435.232 141.775C435.604 141.56 435.905 141.734 435.905 142.164V166.394C435.905 166.824 435.604 167.346 435.232 167.56L414.26 179.673C413.888 179.888 413.587 179.714 413.587 179.285Z" fill="#2B27DE"/>
<path id="XMLID_289_" d="M413.587 179.285V155.054C413.587 154.625 413.888 154.103 414.26 153.888L435.232 141.775C435.604 141.56 435.905 141.734 435.905 142.164V166.394C435.905 166.824 435.604 167.346 435.232 167.56L414.26 179.673C413.888 179.888 413.587 179.714 413.587 179.285Z" fill="#2B27DE"/>
<path id="XMLID_288_" opacity="0.2" d="M414.26 179.673C413.902 179.881 413.247 179.888 412.909 179.681L410.498 178.292C410.125 178.084 409.821 177.563 409.821 177.134V152.937C409.821 152.713 409.905 152.467 410.036 152.25L413.787 154.391C413.663 154.599 413.588 154.839 413.588 155.053V179.282C413.587 179.676 413.864 179.903 414.26 179.673Z" fill="black"/>
<path id="XMLID_287_" opacity="0.4" d="M435.897 142.042C435.844 141.703 435.567 141.582 435.232 141.774L414.262 153.888C414.075 153.997 413.908 154.18 413.786 154.392L410.032 152.251C410.153 152.049 410.315 151.875 410.496 151.772L431.469 139.658C431.839 139.443 432.442 139.44 432.819 139.652L435.23 141.004C435.567 141.196 435.85 141.64 435.897 142.042Z" fill="white"/>
</g>
</g>
</g>
<g id="XMLID_2147_">
<path id="XMLID_2143_" d="M430.711 152.847L430.708 161.671C430.708 162.075 430.425 162.566 430.075 162.768L428.375 163.751C428.026 163.953 427.742 163.79 427.742 163.386V154.564C427.742 154.16 428.025 153.669 428.375 153.467L430.078 152.483C430.428 152.28 430.711 152.443 430.711 152.847Z" fill="#455A64"/>
<path id="XMLID_259_" d="M418.781 159.828V168.47C418.781 169.116 419.124 169.244 419.547 168.756L427.524 159.542C427.947 159.053 427.766 158.657 427.12 158.657H419.951C419.306 158.657 418.781 159.181 418.781 159.828Z" fill="#455A64"/>
</g>
</g>
<g id="Previews">
<g id="Box_3_">
<g id="Speech_Bubble_6_">
<g id="Group_38">
<path id="XMLID_281_" d="M364.899 178.098L343.927 190.211C343.555 190.426 343.254 190.948 343.254 191.377V215.573C343.254 216.002 343.558 216.52 343.932 216.731L346.344 218.118C346.718 218.329 347.322 218.326 347.694 218.111L368.665 206C369.037 205.785 369.338 205.263 369.338 204.834V180.603C369.338 180.174 369.035 179.654 368.661 179.443L366.249 178.091C365.875 177.88 365.271 177.883 364.899 178.098Z" fill="#2B27DE"/>
<path id="XMLID_280_" d="M347.019 217.724V193.493C347.019 193.064 347.32 192.542 347.692 192.327L368.664 180.214C369.036 179.999 369.337 180.173 369.337 180.603V204.834C369.337 205.263 369.036 205.785 368.664 206L347.692 218.113C347.321 218.327 347.019 218.153 347.019 217.724Z" fill="#2B27DE"/>
<path id="XMLID_271_" d="M347.019 217.724V193.493C347.019 193.064 347.32 192.542 347.692 192.327L368.664 180.214C369.036 179.999 369.337 180.173 369.337 180.603V204.834C369.337 205.263 369.036 205.785 368.664 206L347.692 218.113C347.321 218.327 347.019 218.153 347.019 217.724Z" fill="#2B27DE"/>
<path id="XMLID_261_" opacity="0.2" d="M347.693 218.113C347.335 218.321 346.68 218.328 346.342 218.121L343.931 216.732C343.558 216.524 343.253 216.003 343.253 215.574V191.377C343.253 191.153 343.337 190.907 343.468 190.69L347.219 192.831C347.095 193.039 347.02 193.279 347.02 193.493V217.722C347.019 218.116 347.296 218.342 347.693 218.113Z" fill="black"/>
<path id="XMLID_260_" opacity="0.4" d="M369.329 180.481C369.276 180.142 368.999 180.021 368.663 180.213L347.693 192.327C347.506 192.436 347.339 192.619 347.217 192.831L343.463 190.69C343.584 190.488 343.746 190.314 343.926 190.211L364.899 178.097C365.269 177.883 365.872 177.879 366.249 178.091L368.66 179.443C369 179.635 369.283 180.08 369.329 180.481Z" fill="white"/>
</g>
</g>
</g>
<g id="XMLID_2137_">
<path id="XMLID_423_" d="M354.854 196.87L354.851 205.694C354.851 206.098 354.567 206.589 354.218 206.791L352.518 207.774C352.168 207.976 351.885 207.813 351.885 207.409V198.587C351.885 198.183 352.168 197.692 352.518 197.49L354.221 196.506C354.571 196.303 354.854 196.466 354.854 196.87Z" fill="#455A64"/>
<path id="XMLID_2141_" d="M364.471 200.091V191.095C364.471 190.402 364.099 190.261 363.64 190.78L355.116 200.409C354.657 200.927 354.846 201.348 355.539 201.347L363.218 201.345C363.91 201.345 364.471 200.783 364.471 200.091Z" fill="#455A64"/>
</g>
</g>
</g>
</g>
</g>
</g>
<g id="the-song">
<g id="Playing_Box">
<g id="Now_Playing_Box">
<g id="Box_4_">
<g id="Speech_Bubble_1_">
<g id="Group_39">
<path id="XMLID_304_" d="M434.402 184.726L342.718 237.665C342.253 237.933 341.876 238.586 341.876 239.123V297.566C341.876 298.103 342.255 298.75 342.723 299.014L345.738 300.748C346.205 301.012 346.961 301.008 347.426 300.74L439.11 247.8C439.575 247.532 439.952 246.879 439.952 246.342V187.856C439.952 187.319 439.573 186.67 439.106 186.406L436.091 184.716C435.622 184.454 434.867 184.457 434.402 184.726Z" fill="#455A64"/>
<path id="XMLID_293_" d="M439.94 187.704C439.874 187.28 439.528 187.129 439.108 187.37L347.427 240.31C347.194 240.446 346.984 240.675 346.832 240.94L342.139 238.263C342.291 238.01 342.493 237.793 342.718 237.664L434.403 184.724C434.866 184.456 435.62 184.452 436.09 184.716L439.103 186.405C439.528 186.647 439.882 187.203 439.94 187.704Z" fill="#37474F"/>
<path id="XMLID_303_" d="M346.584 300.253V241.767C346.584 241.23 346.961 240.578 347.426 240.309L439.11 187.37C439.575 187.102 439.952 187.319 439.952 187.856V246.342C439.952 246.879 439.575 247.531 439.11 247.8L347.426 300.739C346.961 301.007 346.584 300.79 346.584 300.253Z" fill="#455A64"/>
<path id="XMLID_294_" opacity="0.2" d="M347.425 300.739C346.977 300.999 346.159 301.008 345.736 300.749L342.722 299.013C342.256 298.753 341.875 298.102 341.875 297.565V239.122C341.875 238.842 341.98 238.535 342.143 238.263L346.832 240.94C346.677 241.2 346.583 241.5 346.583 241.768V300.252C346.584 300.743 346.93 301.026 347.425 300.739Z" fill="#263238"/>
</g>
</g>
</g>
<g id="Group_40">
<g id="XMLID_309_">
<g id="Group_41">
<path id="Vector_86" d="M358.235 286.632C358.21 286.646 358.19 286.65 358.172 286.642C358.154 286.634 358.145 286.619 358.145 286.594V286.256L357.1 286.86C357.075 286.874 357.055 286.877 357.037 286.869C357.02 286.861 357.011 286.846 357.011 286.821V286.47C357.011 286.413 357.025 286.356 357.054 286.302L358.046 284.479C358.066 284.443 358.084 284.417 358.1 284.399C358.117 284.382 358.139 284.365 358.169 284.348L358.67 284.059C358.695 284.045 358.715 284.042 358.734 284.049C358.751 284.057 358.76 284.072 358.76 284.097V285.37L359.045 285.206C359.07 285.192 359.09 285.188 359.109 285.196C359.126 285.204 359.136 285.219 359.136 285.244V285.595C359.136 285.62 359.127 285.646 359.109 285.674C359.091 285.702 359.07 285.723 359.045 285.738L358.76 285.903V286.241C358.76 286.264 358.751 286.292 358.734 286.319C358.716 286.347 358.695 286.368 358.67 286.383L358.235 286.632ZM358.163 285.716V285.106L357.678 285.995L358.163 285.716Z" fill="white"/>
<path id="Vector_87" d="M360.203 284.247C360.203 284.27 360.194 284.297 360.176 284.325C360.158 284.353 360.137 284.374 360.113 284.389L359.679 284.639C359.654 284.653 359.634 284.656 359.616 284.649C359.598 284.641 359.589 284.626 359.589 284.601V284.167C359.589 284.142 359.598 284.116 359.616 284.089C359.634 284.06 359.655 284.041 359.679 284.026L360.113 283.775C360.138 283.761 360.158 283.757 360.176 283.765C360.193 283.772 360.203 283.789 360.203 283.812V284.247ZM360.203 285.408C360.203 285.431 360.194 285.458 360.176 285.486C360.158 285.514 360.137 285.535 360.113 285.549L359.679 285.799C359.654 285.813 359.634 285.817 359.616 285.809C359.598 285.801 359.589 285.786 359.589 285.761V285.327C359.589 285.302 359.598 285.276 359.616 285.249C359.634 285.22 359.655 285.2 359.679 285.186L360.113 284.935C360.138 284.921 360.158 284.917 360.176 284.925C360.193 284.932 360.203 284.949 360.203 284.972V285.408Z" fill="white"/>
<path id="Vector_88" d="M361.877 284.53C361.852 284.544 361.832 284.548 361.814 284.54C361.796 284.533 361.787 284.517 361.787 284.493V284.155L360.743 284.758C360.718 284.772 360.697 284.775 360.68 284.768C360.662 284.76 360.653 284.745 360.653 284.72V284.369C360.653 284.311 360.668 284.255 360.696 284.201L361.688 282.378C361.707 282.342 361.726 282.316 361.742 282.298C361.759 282.28 361.781 282.264 361.811 282.247L362.311 281.958C362.336 281.944 362.356 281.941 362.374 281.948C362.392 281.956 362.401 281.972 362.401 281.996V283.269L362.686 283.104C362.711 283.09 362.731 283.087 362.749 283.094C362.766 283.102 362.776 283.118 362.776 283.143V283.494C362.776 283.519 362.767 283.545 362.749 283.572C362.731 283.601 362.711 283.621 362.686 283.636L362.401 283.801V284.139C362.401 284.163 362.392 284.19 362.374 284.217C362.356 284.246 362.335 284.266 362.311 284.281L361.877 284.53ZM361.804 283.614V283.004L361.32 283.894L361.804 283.614Z" fill="white"/>
<path id="Vector_89" d="M363.412 283.565C363.412 283.556 363.415 283.54 363.422 283.52L364.138 281.434L363.15 282.005C363.125 282.019 363.104 282.022 363.087 282.015C363.069 282.008 363.06 281.992 363.06 281.968V281.616C363.06 281.592 363.069 281.565 363.087 281.538C363.104 281.51 363.125 281.489 363.15 281.475L364.735 280.56C364.759 280.546 364.78 280.542 364.798 280.55C364.816 280.557 364.825 280.573 364.825 280.597V280.905C364.825 280.941 364.807 281.007 364.771 281.105L364.051 283.195C364.042 283.22 364.031 283.245 364.016 283.27C364.002 283.295 363.982 283.315 363.955 283.33L363.491 283.598C363.469 283.61 363.45 283.614 363.435 283.607C363.42 283.601 363.412 283.587 363.412 283.565Z" fill="white"/>
</g>
<g id="Group_42">
<path id="Vector_90" d="M423.594 248.099C423.594 248.23 423.567 248.361 423.515 248.494C423.461 248.628 423.389 248.756 423.299 248.879C423.209 249.002 423.103 249.118 422.984 249.226C422.865 249.333 422.738 249.426 422.606 249.502C422.473 249.579 422.346 249.632 422.228 249.663C422.108 249.693 422.003 249.699 421.911 249.682C421.819 249.664 421.746 249.619 421.693 249.547C421.64 249.475 421.613 249.374 421.613 249.243C421.613 249.174 421.621 249.107 421.638 249.042C421.655 248.976 421.675 248.912 421.7 248.849C421.724 248.786 421.75 248.726 421.78 248.667C421.809 248.609 421.836 248.552 421.862 248.5L422.496 247.278C422.506 247.26 422.519 247.24 422.532 247.215C422.545 247.191 422.568 247.17 422.598 247.152L423.125 246.848C423.145 246.836 423.161 246.834 423.174 246.841C423.186 246.849 423.192 246.862 423.192 246.882C423.192 246.893 423.191 246.903 423.187 246.912C423.183 246.92 423.179 246.928 423.175 246.934L422.744 247.767C422.861 247.713 422.971 247.678 423.074 247.661C423.176 247.645 423.266 247.649 423.344 247.674C423.422 247.699 423.482 247.747 423.526 247.817C423.572 247.887 423.594 247.981 423.594 248.099ZM422.228 248.887C422.228 248.936 422.238 248.973 422.261 248.998C422.283 249.023 422.311 249.037 422.346 249.043C422.382 249.048 422.422 249.044 422.468 249.031C422.513 249.018 422.559 248.999 422.606 248.971C422.652 248.944 422.698 248.912 422.743 248.871C422.788 248.832 422.828 248.789 422.862 248.745C422.896 248.699 422.924 248.652 422.947 248.602C422.969 248.552 422.98 248.502 422.98 248.453C422.98 248.404 422.969 248.368 422.947 248.343C422.924 248.318 422.896 248.303 422.862 248.297C422.828 248.291 422.788 248.295 422.743 248.308C422.698 248.321 422.652 248.341 422.606 248.368C422.559 248.395 422.513 248.428 422.468 248.468C422.422 248.507 422.382 248.55 422.346 248.596C422.311 248.642 422.283 248.69 422.261 248.74C422.238 248.79 422.228 248.839 422.228 248.887Z" fill="white"/>
<path id="Vector_91" d="M424.651 247.037C424.651 247.062 424.642 247.087 424.625 247.115C424.607 247.143 424.587 247.164 424.561 247.178L424.127 247.429C424.102 247.443 424.082 247.446 424.063 247.439C424.046 247.432 424.037 247.415 424.037 247.392V246.957C424.037 246.934 424.046 246.906 424.063 246.879C424.081 246.85 424.102 246.83 424.127 246.816L424.561 246.566C424.586 246.552 424.607 246.548 424.625 246.556C424.642 246.564 424.651 246.579 424.651 246.604V247.037ZM424.651 248.198C424.651 248.223 424.642 248.249 424.625 248.276C424.607 248.304 424.587 248.325 424.561 248.339L424.127 248.59C424.102 248.604 424.082 248.607 424.063 248.6C424.046 248.593 424.037 248.576 424.037 248.553V248.118C424.037 248.095 424.046 248.067 424.063 248.04C424.081 248.011 424.102 247.991 424.127 247.976L424.561 247.726C424.586 247.712 424.607 247.708 424.625 247.716C424.642 247.724 424.651 247.739 424.651 247.764V248.198Z" fill="white"/>
<path id="Vector_92" d="M426.89 244.673C426.915 244.659 426.935 244.655 426.953 244.663C426.971 244.67 426.98 244.686 426.98 244.71V245.062C426.98 245.087 426.972 245.113 426.956 245.142C426.941 245.171 426.927 245.196 426.913 245.216L426.512 245.853C426.684 245.798 426.825 245.791 426.933 245.833C427.041 245.876 427.095 245.984 427.095 246.156C427.095 246.406 427.009 246.644 426.837 246.869C426.665 247.095 426.424 247.297 426.114 247.475C425.955 247.567 425.813 247.629 425.692 247.663C425.569 247.696 425.466 247.706 425.382 247.693C425.298 247.679 425.233 247.646 425.188 247.595C425.143 247.543 425.119 247.476 425.117 247.395C425.117 247.376 425.124 247.354 425.138 247.332C425.152 247.309 425.17 247.292 425.19 247.28L425.608 247.039C425.655 247.012 425.69 247.002 425.714 247.009C425.739 247.016 425.766 247.023 425.796 247.03C425.826 247.038 425.865 247.038 425.912 247.031C425.96 247.024 426.028 246.996 426.116 246.945C426.222 246.883 426.31 246.815 426.38 246.74C426.45 246.665 426.485 246.587 426.485 246.511C426.485 246.433 426.45 246.397 426.38 246.402C426.31 246.406 426.223 246.44 426.116 246.501L425.841 246.66C425.816 246.674 425.796 246.677 425.777 246.67C425.76 246.662 425.751 246.646 425.751 246.622V246.336C425.751 246.312 425.759 246.285 425.774 246.256C425.79 246.228 425.805 246.2 425.82 246.176L426.172 245.618L425.307 246.117C425.282 246.131 425.262 246.135 425.244 246.127C425.226 246.12 425.217 246.104 425.217 246.08V245.728C425.217 245.704 425.226 245.677 425.244 245.65C425.262 245.622 425.282 245.601 425.307 245.587L426.89 244.673Z" fill="white"/>
<path id="Vector_93" d="M428.548 243.683C428.714 243.587 428.857 243.529 428.976 243.509C429.096 243.489 429.195 243.497 429.273 243.534C429.351 243.571 429.41 243.632 429.448 243.719C429.487 243.806 429.51 243.908 429.516 244.024C429.52 244.116 429.522 244.215 429.522 244.319C429.522 244.423 429.52 244.522 429.516 244.615C429.509 244.738 429.487 244.866 429.448 244.997C429.409 245.129 429.351 245.259 429.273 245.385C429.195 245.513 429.095 245.636 428.976 245.753C428.858 245.87 428.714 245.976 428.548 246.072C428.382 246.168 428.24 246.226 428.12 246.247C428.001 246.267 427.902 246.259 427.823 246.222C427.745 246.186 427.686 246.124 427.647 246.037C427.609 245.95 427.585 245.848 427.579 245.732C427.574 245.644 427.573 245.548 427.573 245.444C427.573 245.34 427.575 245.24 427.579 245.141C427.586 245.018 427.609 244.89 427.647 244.759C427.686 244.627 427.744 244.498 427.823 244.371C427.902 244.243 428 244.122 428.12 244.004C428.24 243.885 428.382 243.779 428.548 243.683ZM428.903 244.951C428.911 244.758 428.911 244.572 428.903 244.394C428.898 244.341 428.891 244.295 428.878 244.255C428.866 244.216 428.847 244.186 428.82 244.168C428.793 244.15 428.758 244.143 428.714 244.149C428.669 244.154 428.614 244.176 428.548 244.214C428.482 244.252 428.426 244.294 428.382 244.34C428.338 244.386 428.302 244.433 428.276 244.483C428.25 244.532 428.229 244.584 428.217 244.637C428.204 244.691 428.196 244.747 428.194 244.804C428.183 244.993 428.183 245.18 428.194 245.361C428.197 245.414 428.204 245.461 428.216 245.501C428.228 245.54 428.248 245.57 428.276 245.587C428.303 245.606 428.339 245.612 428.383 245.607C428.427 245.601 428.483 245.579 428.549 245.541C428.615 245.503 428.67 245.461 428.715 245.416C428.759 245.37 428.795 245.322 428.823 245.271C428.85 245.221 428.87 245.169 428.883 245.116C428.894 245.062 428.901 245.007 428.903 244.951Z" fill="white"/>
</g>
</g>
<g id="Group_43">
<path id="Vector_94" opacity="0.3" d="M369.108 277.279L417.427 249.382C418.22 248.924 418.863 249.249 418.863 250.108C418.863 250.967 418.22 252.035 417.427 252.493L369.108 280.39C368.315 280.848 367.672 280.523 367.672 279.663C367.672 278.805 368.315 277.737 369.108 277.279Z" fill="white"/>
<path id="Vector_95" d="M369.108 277.279L405.392 256.331C406.185 255.873 406.828 256.198 406.828 257.057C406.828 257.916 406.185 258.984 405.392 259.442L369.108 280.39C368.315 280.848 367.672 280.523 367.672 279.663C367.672 278.805 368.315 277.737 369.108 277.279Z" fill="white"/>
</g>
</g>
<g id="Group_44">
<path id="Vector_96" d="M435.907 213.016C435.907 213.016 433.398 214.465 431.634 215.483C429.87 216.501 426.796 218.408 425.038 217.93C423.556 217.527 422.421 215.536 420.376 216.717C419.087 217.461 417.663 222.028 415.154 223.477C412.644 224.926 411.152 220.837 410.338 218.729C409.524 216.621 408.1 212.669 405.115 214.392C402.131 216.115 400.571 222.154 398.672 226.595C396.773 231.036 394.3 235.34 391.248 237.102C387.646 239.181 385.175 238.17 383.48 239.149C381.784 240.128 380.372 243.223 378.512 245.021C376.831 246.645 374.244 248.22 372.752 247.042C371.26 245.864 370.186 242.759 368.694 243.62C367.202 244.481 365.981 249.456 364.557 251.947C363.133 254.438 361.596 255.919 357.368 258.36C352.281 261.297 349.433 262.942 349.433 262.942V263.508C349.433 263.508 351.146 262.519 352.855 261.532C354.564 260.546 356.968 259.239 358.582 259.922C360.196 260.606 360.259 261.216 361.683 260.394C363.107 259.572 363.645 258.357 364.689 256.786C365.733 255.215 366.398 254.279 367.442 253.676C368.486 253.073 369.815 253.682 370.638 254.483C371.461 255.284 372.283 256.147 373.517 255.434C374.751 254.722 375.605 253.27 376.396 251.716C377.187 250.162 377.63 248.924 378.516 248.413C379.402 247.901 380.288 247.973 381.617 248.144C382.946 248.315 384.329 248.316 386.418 247.111C388.506 245.905 390.92 243.788 393.957 238.368C393.957 238.368 395.223 237.637 398.577 235.701C401.931 233.765 404.251 232.643 405.789 232.999C407.712 233.444 410.347 237.136 413.227 235.474C416.106 233.812 416.929 229.455 418.353 226.608C419.777 223.761 420.789 222.311 424.175 220.357C427.561 218.402 435.91 213.582 435.91 213.582V213.016H435.907Z" fill="#2744DE"/>
<path id="Vector_97" opacity="0.2" d="M410.341 235.632C408.606 234.969 407.044 233.291 405.787 233C404.249 232.644 401.929 233.766 398.575 235.702C395.221 237.638 393.955 238.369 393.955 238.369C396.622 233.599 399.146 226.134 400.099 223.175C400.507 221.907 400.971 220.646 401.513 219.416C402.146 217.98 402.835 216.683 403.633 215.709C405.117 214.16 406.238 213.992 406.964 215.789C407.691 217.589 407.153 222.953 407.279 227.505C407.406 232.056 408.646 234.606 410.341 235.632Z" fill="black"/>
<path id="Vector_98" opacity="0.2" d="M372.751 247.044C374.243 248.222 376.831 246.647 378.511 245.023C380.37 243.226 381.783 240.13 383.479 239.151C385.175 238.172 387.646 239.183 391.247 237.104C392.344 236.471 393.366 235.508 394.314 234.329V234.33C393.002 236.348 391.007 240.071 387.119 242.881C384.86 244.513 381.933 245.507 380.633 246.257C378.993 247.204 378.059 248.46 377.55 249.453C377.181 250.057 376.843 250.836 376.394 251.719C375.603 253.273 374.749 254.724 373.515 255.437C372.902 255.791 372.391 255.756 371.931 255.533C370.835 254.68 370.353 252.821 370.207 248.898C370.039 244.374 369.397 243.494 368.693 243.623C370.185 242.76 371.259 245.866 372.751 247.044Z" fill="black"/>
<path id="Vector_99" opacity="0.2" d="M407.28 227.505C407.154 222.953 407.691 217.589 406.965 215.789C406.474 214.572 405.8 214.259 404.956 214.663C406.23 214.488 407.351 216.5 406.613 221.446C406.204 224.19 404.991 229.328 405.581 232.965C405.65 232.975 405.72 232.984 405.786 232.999C407.044 233.29 408.605 234.968 410.34 235.631C408.646 234.606 407.406 232.056 407.28 227.505Z" fill="black"/>
<path id="Vector_100" opacity="0.2" d="M393.955 238.369C393.955 238.369 394.688 237.945 396.515 236.891C397.494 234.344 398.22 231.767 398.815 229.572C399.788 225.985 400.58 221.76 401.513 219.417C400.971 220.646 400.507 221.907 400.099 223.176C399.146 226.134 396.622 233.599 393.955 238.369Z" fill="black"/>
<path id="Vector_101" opacity="0.5" d="M419.008 218.477C418.018 220.158 416.827 222.512 415.153 223.478C412.643 224.927 411.151 220.838 410.337 218.73C410.1 218.116 409.81 217.345 409.445 216.603C410.48 218.742 411.291 222.658 411.903 224.873C412.421 226.749 412.952 228.031 414.423 227.457C415.895 226.883 416.903 223.793 417.505 222.119C417.978 220.807 418.514 219.405 419.008 218.477Z" fill="white"/>
<path id="Vector_102" opacity="0.2" d="M419.249 221.29C418.491 223.641 418.139 226.23 416.949 230.007C417.419 228.809 417.848 227.614 418.351 226.608C419.775 223.761 420.787 222.311 424.173 220.357C425.149 219.793 426.538 218.991 428.021 218.136C424.312 220.277 422.715 218.64 421.822 218.146C420.927 217.652 420.007 218.939 419.249 221.29Z" fill="black"/>
<path id="Vector_103" opacity="0.2" d="M421.304 218.055C420.58 218.188 419.861 219.391 419.249 221.291C418.491 223.642 418.139 226.231 416.949 230.008C417.419 228.81 417.848 227.615 418.351 226.609C418.713 225.884 419.049 225.25 419.405 224.675C419.537 223.548 419.632 222.569 419.69 221.99C419.866 220.258 420.502 218.63 421.304 218.055Z" fill="black"/>
<path id="Vector_104" opacity="0.2" d="M391.247 237.104C387.645 239.183 385.174 238.172 383.479 239.151C383.214 239.304 382.957 239.513 382.703 239.756C383.841 238.768 385.728 239.514 387.133 239.728C388.008 239.861 389.598 239.793 391.287 238.822C392.645 237.098 393.585 235.45 394.314 234.329C393.367 235.509 392.345 236.471 391.247 237.104Z" fill="black"/>
<path id="Vector_105" opacity="0.2" d="M370.207 248.897C370.353 252.82 370.835 254.679 371.931 255.532C372.391 255.755 372.902 255.79 373.515 255.436C374.634 254.79 375.44 253.536 376.17 252.15C374.715 254.164 372.539 254.479 371.924 252.58C371.309 250.681 371.276 248.038 370.852 246.241C370.451 244.542 369.934 243.51 369.23 243.474C369.198 243.473 369.166 243.476 369.133 243.478C369.12 243.479 369.107 243.479 369.094 243.481C369.06 243.485 369.026 243.493 368.991 243.501C368.972 243.506 368.953 243.511 368.933 243.518C368.905 243.527 368.877 243.536 368.849 243.547C368.798 243.568 368.746 243.592 368.693 243.622C369.397 243.493 370.039 244.373 370.207 248.897Z" fill="black"/>
<path id="Vector_106" opacity="0.5" d="M364.556 251.949C363.132 254.44 361.595 255.921 357.367 258.362C357.054 258.543 356.749 258.719 356.453 258.89C361.736 255.84 363.813 256.63 365.184 253.742C366.555 250.854 367.089 246.014 367.782 244.656C366.678 246.472 365.68 249.983 364.556 251.949Z" fill="white"/>
<path id="Vector_107" opacity="0.5" d="M396.429 233.185C395.651 235.033 394.81 236.84 393.955 238.368C390.918 243.789 388.504 245.907 386.416 247.112C384.327 248.318 382.943 248.316 381.616 248.145C380.287 247.974 379.4 247.903 378.514 248.414C379.907 247.468 381.05 247.295 382.703 247.247C384.356 247.202 386.814 246.468 389.632 243.669C392.406 240.914 396.307 233.417 396.429 233.185Z" fill="white"/>
</g>
<g id="Group_45">
<path id="Vector_108" d="M381.863 257.449C381.908 257.424 381.947 257.426 381.978 257.457C382.01 257.488 382.028 257.537 382.028 257.607V257.943C382.028 258.011 382.01 258.082 381.978 258.15C381.947 258.218 381.908 258.265 381.863 258.292L380.725 258.949V264.41C380.725 264.478 380.709 264.548 380.676 264.617C380.644 264.685 380.605 264.732 380.561 264.758L380.312 264.903C380.267 264.928 380.228 264.926 380.196 264.895C380.163 264.864 380.147 264.813 380.147 264.745V259.284L379.009 259.94C378.964 259.965 378.925 259.963 378.893 259.932C378.861 259.901 378.844 259.85 378.844 259.782V259.446C378.844 259.376 378.861 259.307 378.893 259.239C378.925 259.171 378.964 259.124 379.009 259.097L381.863 257.449Z" fill="white"/>
<path id="Vector_109" d="M385.824 255.162C385.869 255.137 385.908 255.139 385.94 255.17C385.972 255.201 385.989 255.25 385.989 255.32V261.371C385.989 261.439 385.972 261.51 385.94 261.578C385.908 261.646 385.869 261.693 385.824 261.72L385.575 261.863C385.53 261.889 385.492 261.886 385.46 261.855C385.427 261.824 385.411 261.773 385.411 261.705V259.064L383.268 260.3V262.942C383.268 263.01 383.252 263.08 383.22 263.148C383.187 263.217 383.149 263.263 383.104 263.29L382.855 263.433C382.81 263.459 382.772 263.458 382.739 263.43C382.707 263.402 382.691 263.351 382.691 263.275V257.224C382.691 257.154 382.707 257.086 382.739 257.017C382.772 256.949 382.81 256.902 382.855 256.876L383.104 256.731C383.149 256.706 383.187 256.708 383.22 256.739C383.252 256.77 383.268 256.82 383.268 256.889V259.455L385.411 258.219V255.653C385.411 255.583 385.427 255.515 385.46 255.446C385.492 255.378 385.53 255.331 385.575 255.305L385.824 255.162Z" fill="white"/>
<path id="Vector_110" d="M389.658 258.664C389.703 258.638 389.741 258.641 389.774 258.671C389.806 258.703 389.822 258.752 389.822 258.822V259.158C389.822 259.226 389.806 259.296 389.774 259.364C389.741 259.433 389.703 259.48 389.658 259.506L387.199 260.926C387.155 260.951 387.117 260.949 387.084 260.918C387.052 260.887 387.035 260.836 387.035 260.768V254.716C387.035 254.647 387.052 254.578 387.084 254.509C387.117 254.44 387.155 254.394 387.199 254.367L389.609 252.976C389.654 252.95 389.693 252.952 389.724 252.983C389.756 253.015 389.774 253.064 389.774 253.133V253.47C389.774 253.538 389.756 253.608 389.724 253.676C389.693 253.744 389.654 253.792 389.609 253.819L387.613 254.972V256.949L389.475 255.873C389.52 255.848 389.558 255.852 389.591 255.882C389.622 255.913 389.639 255.963 389.639 256.031V256.369C389.639 256.437 389.622 256.507 389.591 256.575C389.558 256.644 389.52 256.691 389.475 256.717L387.613 257.793V259.844L389.658 258.664Z" fill="white"/>
<path id="Vector_111" d="M393.43 250.676C393.677 250.533 393.896 250.466 394.084 250.476C394.273 250.485 394.433 250.538 394.566 250.634C394.697 250.73 394.797 250.857 394.867 251.013C394.935 251.17 394.971 251.326 394.976 251.479C394.98 251.533 394.968 251.588 394.939 251.645C394.912 251.701 394.879 251.741 394.842 251.762L394.592 251.906C394.547 251.932 394.512 251.94 394.486 251.93C394.46 251.92 394.432 251.88 394.404 251.808C394.384 251.757 394.35 251.698 394.303 251.627C394.256 251.557 394.194 251.499 394.114 251.456C394.035 251.411 393.939 251.388 393.825 251.389C393.712 251.389 393.58 251.432 393.429 251.518C393.315 251.584 393.207 251.667 393.104 251.767C393 251.868 392.908 251.982 392.827 252.11C392.746 252.239 392.682 252.378 392.633 252.527C392.584 252.677 392.56 252.833 392.56 252.996C392.56 253.158 392.583 253.283 392.63 253.368C392.677 253.453 392.751 253.512 392.855 253.543C392.959 253.573 393.089 253.58 393.248 253.564C393.406 253.548 393.6 253.52 393.826 253.483C394.058 253.443 394.253 253.433 394.414 253.452C394.573 253.473 394.705 253.523 394.807 253.605C394.908 253.687 394.982 253.807 395.028 253.964C395.076 254.121 395.098 254.315 395.098 254.547C395.098 254.828 395.059 255.108 394.98 255.387C394.901 255.668 394.791 255.932 394.649 256.184C394.506 256.434 394.335 256.664 394.134 256.873C393.933 257.084 393.708 257.26 393.462 257.402C393.226 257.539 393.009 257.611 392.811 257.619C392.612 257.627 392.441 257.588 392.299 257.502C392.156 257.416 392.044 257.293 391.961 257.135C391.878 256.977 391.834 256.799 391.83 256.602C391.83 256.545 391.844 256.491 391.87 256.434C391.896 256.377 391.928 256.338 391.965 256.318L392.214 256.174C392.255 256.151 392.29 256.143 392.321 256.151C392.351 256.157 392.379 256.198 392.403 256.272C392.427 256.344 392.464 256.418 392.515 256.493C392.566 256.567 392.634 256.624 392.719 256.666C392.805 256.706 392.907 256.724 393.03 256.716C393.152 256.708 393.296 256.657 393.463 256.561C393.605 256.479 393.739 256.376 393.866 256.252C393.994 256.128 394.106 255.991 394.205 255.841C394.302 255.691 394.379 255.534 394.435 255.37C394.492 255.206 394.521 255.043 394.521 254.881C394.521 254.719 394.488 254.599 394.423 254.52C394.359 254.442 394.264 254.391 394.144 254.368C394.022 254.345 393.873 254.345 393.696 254.368C393.519 254.392 393.32 254.425 393.096 254.467C392.894 254.502 392.721 254.504 392.578 254.47C392.436 254.437 392.321 254.37 392.231 254.273C392.142 254.173 392.079 254.046 392.041 253.886C392.002 253.728 391.982 253.542 391.982 253.33C391.982 253.099 392.012 252.856 392.073 252.602C392.134 252.348 392.224 252.103 392.344 251.865C392.463 251.628 392.614 251.404 392.794 251.197C392.975 250.99 393.187 250.816 393.43 250.676Z" fill="white"/>
<path id="Vector_112" d="M395.725 251.889C395.728 251.537 395.768 251.185 395.843 250.832C395.918 250.48 396.027 250.149 396.169 249.838C396.311 249.528 396.484 249.246 396.692 248.993C396.898 248.739 397.135 248.535 397.404 248.381C397.671 248.227 397.909 248.156 398.115 248.172C398.322 248.186 398.497 248.267 398.638 248.413C398.781 248.559 398.889 248.766 398.964 249.031C399.039 249.297 399.078 249.603 399.082 249.951C399.095 250.5 399.095 251.056 399.082 251.619C399.074 251.973 399.033 252.327 398.958 252.679C398.882 253.032 398.774 253.365 398.632 253.678C398.49 253.991 398.316 254.272 398.112 254.522C397.907 254.773 397.67 254.974 397.403 255.128C397.135 255.283 396.898 255.355 396.693 255.341C396.489 255.328 396.315 255.247 396.173 255.099C396.03 254.951 395.922 254.742 395.847 254.475C395.772 254.209 395.731 253.904 395.723 253.559C395.713 253.009 395.713 252.453 395.725 251.889ZM398.505 250.331C398.497 250.043 398.466 249.805 398.41 249.618C398.356 249.43 398.28 249.294 398.182 249.205C398.084 249.118 397.97 249.077 397.838 249.081C397.706 249.086 397.562 249.133 397.403 249.225C397.244 249.317 397.099 249.436 396.967 249.584C396.835 249.733 396.721 249.906 396.623 250.106C396.525 250.307 396.448 250.532 396.392 250.784C396.335 251.035 396.305 251.309 396.3 251.604C396.293 251.89 396.288 252.155 396.288 252.398C396.288 252.642 396.293 252.901 396.3 253.178C396.305 253.47 396.335 253.707 396.392 253.894C396.449 254.081 396.526 254.216 396.623 254.303C396.721 254.391 396.835 254.433 396.967 254.428C397.099 254.424 397.243 254.377 397.403 254.285C397.561 254.193 397.706 254.074 397.838 253.926C397.97 253.778 398.084 253.604 398.182 253.404C398.28 253.204 398.356 252.98 398.41 252.73C398.466 252.479 398.497 252.205 398.505 251.907C398.513 251.621 398.517 251.357 398.517 251.113C398.517 250.868 398.513 250.607 398.505 250.331Z" fill="white"/>
<path id="Vector_113" d="M402.772 251.934C402.714 251.967 402.667 251.965 402.627 251.928C402.589 251.89 402.556 251.846 402.527 251.793L400.549 248.354V252.963C400.549 253.031 400.532 253.1 400.5 253.169C400.467 253.239 400.429 253.285 400.385 253.311L400.135 253.455C400.09 253.481 400.052 253.478 400.019 253.447C399.988 253.416 399.971 253.366 399.971 253.297V247.245C399.971 247.176 399.988 247.108 400.019 247.038C400.052 246.969 400.09 246.923 400.135 246.897L400.348 246.774C400.405 246.741 400.452 246.743 400.491 246.78C400.529 246.818 400.562 246.861 400.592 246.913L402.569 250.353V245.744C402.569 245.675 402.586 245.607 402.619 245.537C402.651 245.469 402.689 245.422 402.733 245.396L402.983 245.252C403.028 245.226 403.067 245.228 403.099 245.259C403.131 245.291 403.148 245.34 403.148 245.409V251.461C403.148 251.529 403.131 251.599 403.099 251.667C403.067 251.736 403.028 251.783 402.983 251.809L402.772 251.934Z" fill="white"/>
<path id="Vector_114" d="M404.037 247.072C404.045 246.725 404.085 246.377 404.155 246.03C404.226 245.682 404.334 245.352 404.477 245.037C404.622 244.723 404.801 244.438 405.016 244.183C405.231 243.928 405.485 243.716 405.777 243.547C406.053 243.388 406.295 243.311 406.504 243.314C406.713 243.318 406.889 243.373 407.027 243.476C407.168 243.58 407.273 243.716 407.343 243.884C407.414 244.052 407.452 244.219 407.456 244.386C407.46 244.44 407.448 244.495 407.419 244.553C407.392 244.61 407.358 244.649 407.322 244.67L407.072 244.814C406.975 244.87 406.916 244.87 406.895 244.813C406.847 244.691 406.791 244.582 406.729 244.487C406.666 244.393 406.591 244.323 406.506 244.279C406.42 244.235 406.318 244.218 406.198 244.231C406.078 244.245 405.937 244.298 405.775 244.391C405.609 244.487 405.456 244.612 405.315 244.764C405.175 244.917 405.055 245.094 404.954 245.296C404.852 245.499 404.771 245.725 404.71 245.976C404.649 246.227 404.617 246.497 404.613 246.786C404.605 247.072 404.601 247.333 404.601 247.57C404.601 247.808 404.605 248.065 404.613 248.341C404.617 248.638 404.649 248.882 404.71 249.072C404.771 249.262 404.853 249.4 404.954 249.488C405.056 249.577 405.176 249.616 405.315 249.607C405.456 249.598 405.609 249.546 405.775 249.45C405.937 249.357 406.089 249.238 406.231 249.093C406.374 248.948 406.497 248.776 406.602 248.574C406.708 248.372 406.79 248.142 406.848 247.884C406.907 247.624 406.937 247.333 406.937 247.008V246.746L406.061 247.252C406.016 247.278 405.977 247.275 405.946 247.244C405.914 247.213 405.896 247.163 405.896 247.095V246.757C405.896 246.689 405.914 246.619 405.946 246.551C405.977 246.483 406.016 246.435 406.061 246.409L407.351 245.664C407.396 245.638 407.434 245.642 407.467 245.672C407.498 245.703 407.515 245.754 407.515 245.822V246.713C407.515 247.087 407.477 247.455 407.4 247.815C407.322 248.175 407.21 248.512 407.062 248.825C406.914 249.139 406.731 249.422 406.514 249.675C406.297 249.928 406.051 250.135 405.775 250.294C405.483 250.463 405.229 250.542 405.014 250.532C404.799 250.521 404.62 250.442 404.479 250.292C404.336 250.144 404.229 249.934 404.157 249.664C404.084 249.394 404.043 249.081 404.035 248.723C404.024 248.179 404.024 247.629 404.037 247.072Z" fill="white"/>
</g>
</g>
</g>
</g>
</g>
</svg>
