<?xml version="1.0" encoding="utf-8"?>
<!-- Generator: Adobe Illustrator 27.5.0, SVG Export Plug-In . SVG Version: 6.00 Build 0)  -->
<svg version="1.1" xmlns="http://www.w3.org/2000/svg" xmlns:xlink="http://www.w3.org/1999/xlink" x="0px" y="0px"
	 viewBox="0 0 500 500" style="enable-background:new 0 0 500 500;" xml:space="preserve">
<g id="Background_Simple">
	<g>
		<path style="fill:#C6FF00;" d="M329.22,43.771c0,0-73.45-21.628-145.978,22.117c-72.528,43.745-109.517,125.324-141.25,190.776
			c-31.733,65.452-14.139,129.577,40.828,156.509c54.968,26.932,92.766-18.609,170.165-24.54
			c77.4-5.931,98.142,3.716,162.634-41.601s76.757-145.459,26.588-216.645S329.22,43.771,329.22,43.771z"/>
		<path style="opacity:0.7;fill:#FFFFFF;" d="M329.22,43.771c0,0-73.45-21.628-145.978,22.117
			c-72.528,43.745-109.517,125.324-141.25,190.776c-31.733,65.452-14.139,129.577,40.828,156.509
			c54.968,26.932,92.766-18.609,170.165-24.54c77.4-5.931,98.142,3.716,162.634-41.601s76.757-145.459,26.588-216.645
			S329.22,43.771,329.22,43.771z"/>
	</g>
</g>
<g id="Speakers">
	<g>
		<path style="fill:none;stroke:#263238;stroke-miterlimit:10;" d="M370.275,265.58c-8.097-8.851-13.037-20.638-13.037-33.58
			c0-14.426,6.138-27.418,15.946-36.507"/>
		<path style="fill:none;stroke:#263238;stroke-miterlimit:10;" d="M443.895,265.393c-9.105,10.054-22.263,16.37-36.895,16.37
			c-10.421,0-20.094-3.203-28.087-8.679"/>
		<path style="fill:none;stroke:#263238;stroke-miterlimit:10;" d="M456.114,223.946c0.427,2.622,0.648,5.312,0.648,8.054
			c0,6.166-1.121,12.07-3.171,17.519"/>
		<path style="fill:none;stroke:#263238;stroke-miterlimit:10;" d="M380.288,190.007c7.717-4.919,16.882-7.77,26.712-7.77
			c21.999,0,40.663,14.275,47.237,34.067"/>
		<circle style="fill:none;stroke:#263238;stroke-miterlimit:10;" cx="407" cy="232" r="43"/>
		<path style="fill:#263238;stroke:#263238;stroke-miterlimit:10;" d="M436.535,217.769c-5.298-10.975-16.532-18.547-29.535-18.547
			c-18.103,0-32.778,14.675-32.778,32.778c0,7.867,2.774,15.085,7.395,20.735C385.703,246.585,404.654,220.798,436.535,217.769z"/>
		<path style="fill:#263238;stroke:#FFFFFF;stroke-miterlimit:10;" d="M407,196.796c-19.443,0-35.204,15.762-35.204,35.204
			s15.762,35.204,35.204,35.204c19.443,0,35.204-15.762,35.204-35.204S426.443,196.796,407,196.796z M407,262.837
			c-17.031,0-30.837-13.806-30.837-30.837s13.806-30.837,30.837-30.837s30.837,13.806,30.837,30.837S424.031,262.837,407,262.837z"
			/>
		<circle style="fill:none;stroke:#263238;stroke-miterlimit:10;" cx="407" cy="232" r="23.267"/>
		<circle style="fill:none;stroke:#263238;stroke-miterlimit:10;" cx="407" cy="232" r="16.764"/>
		<circle style="fill:#263238;stroke:#FFFFFF;stroke-miterlimit:10;" cx="407" cy="232" r="9"/>
	</g>
	<g>
		<path style="fill:none;stroke:#263238;stroke-miterlimit:10;" d="M381.908,156.692c-5.532-6.047-8.908-14.101-8.908-22.943
			c0-9.856,4.194-18.733,10.895-24.943"/>
		<path style="fill:none;stroke:#263238;stroke-miterlimit:10;" d="M432.208,156.564c-6.221,6.869-15.211,11.184-25.208,11.184
			c-7.12,0-13.729-2.188-19.191-5.93"/>
		<path style="fill:none;stroke:#263238;stroke-miterlimit:10;" d="M440.557,128.245c0.291,1.791,0.443,3.629,0.443,5.503
			c0,4.213-0.766,8.247-2.167,11.97"/>
		<path style="fill:none;stroke:#263238;stroke-miterlimit:10;" d="M388.749,105.057c5.273-3.361,11.534-5.309,18.251-5.309
			c15.03,0,27.783,9.753,32.274,23.276"/>
		
			<ellipse transform="matrix(0.9386 -0.3451 0.3451 0.9386 -21.1527 148.6774)" style="fill:none;stroke:#263238;stroke-miterlimit:10;" cx="407" cy="133.748" rx="29.38" ry="29.38"/>
		<path style="fill:#263238;stroke:#263238;stroke-miterlimit:10;" d="M427.18,124.025c-3.62-7.499-11.296-12.672-20.18-12.672
			c-12.369,0-22.395,10.027-22.395,22.395c0,5.375,1.896,10.307,5.052,14.167C392.449,143.714,405.397,126.094,427.18,124.025z"/>
		<path style="fill:#263238;stroke:#FFFFFF;stroke-miterlimit:10;" d="M407,109.695c-13.284,0-24.053,10.769-24.053,24.053
			s10.769,24.053,24.053,24.053c13.284,0,24.053-10.769,24.053-24.053S420.284,109.695,407,109.695z M407,154.818
			c-11.636,0-21.069-9.433-21.069-21.069c0-11.636,9.433-21.069,21.069-21.069s21.069,9.433,21.069,21.069
			C428.069,145.385,418.636,154.818,407,154.818z"/>
		
			<ellipse transform="matrix(0.9395 -0.3424 0.3424 0.9395 -21.1934 147.4616)" style="fill:none;stroke:#263238;stroke-miterlimit:10;" cx="407" cy="133.748" rx="15.897" ry="15.897"/>
		<circle style="fill:none;stroke:#263238;stroke-miterlimit:10;" cx="407" cy="133.748" r="11.454"/>
		<path style="fill:#263238;stroke:#FFFFFF;stroke-miterlimit:10;" d="M413.149,133.748c0,3.396-2.753,6.149-6.149,6.149
			s-6.149-2.753-6.149-6.149c0-3.396,2.753-6.149,6.149-6.149S413.149,130.352,413.149,133.748z"/>
	</g>
	<g>
		<path style="fill:none;stroke:#263238;stroke-miterlimit:10;" d="M81.908,156.692C76.375,150.644,73,142.591,73,133.748
			c0-9.856,4.194-18.733,10.895-24.943"/>
		<path style="fill:none;stroke:#263238;stroke-miterlimit:10;" d="M132.208,156.564c-6.221,6.869-15.211,11.184-25.208,11.184
			c-7.12,0-13.729-2.188-19.19-5.93"/>
		<path style="fill:none;stroke:#263238;stroke-miterlimit:10;" d="M140.557,128.245c0.291,1.791,0.443,3.629,0.443,5.503
			c0,4.213-0.766,8.247-2.167,11.97"/>
		<path style="fill:none;stroke:#263238;stroke-miterlimit:10;" d="M88.749,105.057c5.273-3.361,11.535-5.309,18.251-5.309
			c15.03,0,27.783,9.753,32.274,23.276"/>
		
			<ellipse transform="matrix(0.9205 -0.3908 0.3908 0.9205 -43.7566 52.4461)" style="fill:none;stroke:#263238;stroke-miterlimit:10;" cx="107" cy="133.748" rx="29.38" ry="29.38"/>
		<path style="fill:#263238;stroke:#263238;stroke-miterlimit:10;" d="M127.18,124.025c-3.62-7.499-11.296-12.672-20.18-12.672
			c-12.369,0-22.395,10.027-22.395,22.395c0,5.375,1.896,10.307,5.052,14.167C92.449,143.714,105.397,126.094,127.18,124.025z"/>
		<path style="fill:#263238;stroke:#FFFFFF;stroke-miterlimit:10;" d="M107,109.695c-13.284,0-24.053,10.769-24.053,24.053
			S93.716,157.802,107,157.802s24.053-10.769,24.053-24.053S120.284,109.695,107,109.695z M107,154.818
			c-11.636,0-21.069-9.433-21.069-21.069c0-11.636,9.433-21.069,21.069-21.069s21.069,9.433,21.069,21.069
			C128.069,145.385,118.636,154.818,107,154.818z"/>
		
			<ellipse transform="matrix(0.9208 -0.39 0.39 0.9208 -43.685 52.3134)" style="fill:none;stroke:#263238;stroke-miterlimit:10;" cx="107" cy="133.748" rx="15.897" ry="15.897"/>
		<circle style="fill:none;stroke:#263238;stroke-miterlimit:10;" cx="107" cy="133.748" r="11.454"/>
		<path style="fill:#263238;stroke:#FFFFFF;stroke-miterlimit:10;" d="M113.149,133.748c0,3.396-2.753,6.149-6.149,6.149
			s-6.149-2.753-6.149-6.149c0-3.396,2.753-6.149,6.149-6.149S113.149,130.352,113.149,133.748z"/>
	</g>
	<g>
		<path style="fill:none;stroke:#263238;stroke-miterlimit:10;" d="M381.908,352.385c-5.532-6.047-8.908-14.101-8.908-22.943
			c0-9.856,4.194-18.733,10.895-24.943"/>
		<path style="fill:none;stroke:#263238;stroke-miterlimit:10;" d="M432.208,352.257c-6.221,6.869-15.211,11.185-25.208,11.185
			c-7.12,0-13.729-2.189-19.191-5.93"/>
		<path style="fill:none;stroke:#263238;stroke-miterlimit:10;" d="M440.557,323.939c0.291,1.791,0.443,3.629,0.443,5.503
			c0,4.213-0.766,8.247-2.167,11.97"/>
		<path style="fill:none;stroke:#263238;stroke-miterlimit:10;" d="M388.749,300.75c5.273-3.361,11.534-5.309,18.251-5.309
			c15.03,0,27.783,9.753,32.274,23.276"/>
		
			<ellipse transform="matrix(0.1519 -0.9884 0.9884 0.1519 19.5472 681.6653)" style="fill:none;stroke:#263238;stroke-miterlimit:10;" cx="407" cy="329.442" rx="29.38" ry="29.38"/>
		<path style="fill:#263238;stroke:#263238;stroke-miterlimit:10;" d="M427.18,319.719c-3.62-7.499-11.296-12.672-20.18-12.672
			c-12.369,0-22.395,10.027-22.395,22.395c0,5.375,1.896,10.307,5.052,14.167C392.449,339.407,405.397,321.788,427.18,319.719z"/>
		<path style="fill:#263238;stroke:#FFFFFF;stroke-miterlimit:10;" d="M407,305.389c-13.284,0-24.053,10.769-24.053,24.053
			c0,13.284,10.769,24.053,24.053,24.053c13.284,0,24.053-10.769,24.053-24.053C431.053,316.158,420.284,305.389,407,305.389z
			 M407,350.511c-11.636,0-21.069-9.433-21.069-21.069c0-11.636,9.433-21.069,21.069-21.069s21.069,9.433,21.069,21.069
			C428.069,341.078,418.636,350.511,407,350.511z"/>
		
			<ellipse transform="matrix(0.1513 -0.9885 0.9885 0.1513 19.7628 681.9023)" style="fill:none;stroke:#263238;stroke-miterlimit:10;" cx="407" cy="329.442" rx="15.897" ry="15.897"/>
		<circle style="fill:none;stroke:#263238;stroke-miterlimit:10;" cx="407" cy="329.442" r="11.454"/>
		<path style="fill:#263238;stroke:#FFFFFF;stroke-miterlimit:10;" d="M413.149,329.442c0,3.396-2.753,6.149-6.149,6.149
			s-6.149-2.753-6.149-6.149c0-3.396,2.753-6.149,6.149-6.149S413.149,326.046,413.149,329.442z"/>
	</g>
	<g>
		<path style="fill:none;stroke:#263238;stroke-miterlimit:10;" d="M81.908,352.385C76.375,346.338,73,338.284,73,329.442
			c0-9.856,4.194-18.733,10.895-24.943"/>
		<path style="fill:none;stroke:#263238;stroke-miterlimit:10;" d="M132.208,352.257c-6.221,6.869-15.211,11.185-25.208,11.185
			c-7.12,0-13.729-2.189-19.19-5.93"/>
		<path style="fill:none;stroke:#263238;stroke-miterlimit:10;" d="M140.557,323.939c0.291,1.791,0.443,3.629,0.443,5.503
			c0,4.213-0.766,8.247-2.167,11.97"/>
		<path style="fill:none;stroke:#263238;stroke-miterlimit:10;" d="M88.749,300.75c5.273-3.361,11.535-5.309,18.251-5.309
			c15.03,0,27.783,9.753,32.274,23.276"/>
		
			<ellipse transform="matrix(0.1619 -0.9868 0.9868 0.1619 -235.4189 381.6935)" style="fill:none;stroke:#263238;stroke-miterlimit:10;" cx="107" cy="329.442" rx="29.38" ry="29.38"/>
		<path style="fill:#263238;stroke:#263238;stroke-miterlimit:10;" d="M127.18,319.719c-3.62-7.499-11.296-12.672-20.18-12.672
			c-12.369,0-22.395,10.027-22.395,22.395c0,5.375,1.896,10.307,5.052,14.167C92.449,339.407,105.397,321.788,127.18,319.719z"/>
		<path style="fill:#263238;stroke:#FFFFFF;stroke-miterlimit:10;" d="M107,305.389c-13.284,0-24.053,10.769-24.053,24.053
			c0,13.284,10.769,24.053,24.053,24.053s24.053-10.769,24.053-24.053C131.053,316.158,120.284,305.389,107,305.389z M107,350.511
			c-11.636,0-21.069-9.433-21.069-21.069c0-11.636,9.433-21.069,21.069-21.069s21.069,9.433,21.069,21.069
			C128.069,341.078,118.636,350.511,107,350.511z"/>
		
			<ellipse transform="matrix(0.1617 -0.9868 0.9868 0.1617 -235.4099 381.753)" style="fill:none;stroke:#263238;stroke-miterlimit:10;" cx="107" cy="329.442" rx="15.897" ry="15.897"/>
		<circle style="fill:none;stroke:#263238;stroke-miterlimit:10;" cx="107" cy="329.442" r="11.454"/>
		<path style="fill:#263238;stroke:#FFFFFF;stroke-miterlimit:10;" d="M113.149,329.442c0,3.396-2.753,6.149-6.149,6.149
			s-6.149-2.753-6.149-6.149c0-3.396,2.753-6.149,6.149-6.149S113.149,326.046,113.149,329.442z"/>
	</g>
	<g>
		<path style="fill:none;stroke:#263238;stroke-miterlimit:10;" d="M70.275,265.58c-8.097-8.851-13.037-20.638-13.037-33.58
			c0-14.426,6.138-27.418,15.946-36.507"/>
		<path style="fill:none;stroke:#263238;stroke-miterlimit:10;" d="M143.895,265.393c-9.105,10.054-22.263,16.37-36.895,16.37
			c-10.421,0-20.094-3.203-28.087-8.679"/>
		<path style="fill:none;stroke:#263238;stroke-miterlimit:10;" d="M156.114,223.946c0.427,2.622,0.648,5.312,0.648,8.054
			c0,6.166-1.121,12.07-3.171,17.519"/>
		<path style="fill:none;stroke:#263238;stroke-miterlimit:10;" d="M80.288,190.007c7.717-4.919,16.882-7.77,26.712-7.77
			c21.999,0,40.663,14.275,47.237,34.067"/>
		<circle style="fill:none;stroke:#263238;stroke-miterlimit:10;" cx="107" cy="232" r="43"/>
		<path style="fill:#263238;stroke:#263238;stroke-miterlimit:10;" d="M136.535,217.769c-5.298-10.975-16.532-18.547-29.535-18.547
			c-18.103,0-32.778,14.675-32.778,32.778c0,7.867,2.774,15.085,7.395,20.735C85.703,246.585,104.654,220.798,136.535,217.769z"/>
		<path style="fill:#263238;stroke:#FFFFFF;stroke-miterlimit:10;" d="M107,196.796c-19.443,0-35.204,15.762-35.204,35.204
			S87.557,267.204,107,267.204s35.204-15.762,35.204-35.204S126.443,196.796,107,196.796z M107,262.837
			c-17.031,0-30.837-13.806-30.837-30.837S89.969,201.163,107,201.163s30.837,13.806,30.837,30.837S124.031,262.837,107,262.837z"/>
		<circle style="fill:none;stroke:#263238;stroke-miterlimit:10;" cx="107" cy="232" r="23.267"/>
		<circle style="fill:none;stroke:#263238;stroke-miterlimit:10;" cx="107" cy="232" r="16.764"/>
		<circle style="fill:#263238;stroke:#FFFFFF;stroke-miterlimit:10;" cx="107" cy="232" r="9"/>
	</g>
</g>
<g id="Device">
	<g>
		
			<polygon id="XMLID_1_" style="fill:#707070;stroke:#263238;stroke-linecap:round;stroke-linejoin:round;stroke-miterlimit:10;" points="
			425.782,440.887 74.76,440.887 122.167,405.505 378.374,405.505 		"/>
		<g id="XMLID_151_">
			
				<rect id="XMLID_150_" x="74.76" y="440.887" style="fill:#263238;stroke:#263238;stroke-linecap:round;stroke-linejoin:round;stroke-miterlimit:10;" width="351.153" height="9.322"/>
			<g id="XMLID_141_">
				
					<polygon id="XMLID_82_" style="fill:#707070;stroke:#263238;stroke-linecap:round;stroke-linejoin:round;stroke-miterlimit:10;" points="
					425.782,440.887 74.76,440.887 122.167,405.505 378.374,405.505 				"/>
				
					<polygon id="XMLID_95_" style="fill:#263238;stroke:#263238;stroke-linecap:round;stroke-linejoin:round;stroke-miterlimit:10;" points="
					113.559,433.361 107.732,433.361 134.174,410.458 138.92,410.458 				"/>
				
					<polygon id="XMLID_114_" style="fill:#C6FF00;stroke:#263238;stroke-linecap:round;stroke-linejoin:round;stroke-miterlimit:10;" points="
					128.047,420.277 122.838,420.277 125.72,417.781 130.811,417.781 				"/>
				
					<polygon id="XMLID_119_" style="fill:#263238;stroke:#263238;stroke-linecap:round;stroke-linejoin:round;stroke-miterlimit:10;" points="
					124.624,433.361 118.798,433.361 143.186,410.458 147.932,410.458 				"/>
				
					<polygon id="XMLID_117_" style="fill:#C6FF00;stroke:#263238;stroke-linecap:round;stroke-linejoin:round;stroke-miterlimit:10;" points="
					129.977,428.102 124.399,428.102 127.442,425.243 132.885,425.243 				"/>
				
					<polygon id="XMLID_121_" style="fill:#263238;stroke:#263238;stroke-linecap:round;stroke-linejoin:round;stroke-miterlimit:10;" points="
					135.689,433.361 129.863,433.361 152.199,410.458 156.944,410.458 				"/>
				
					<polygon id="XMLID_120_" style="fill:#C6FF00;stroke:#263238;stroke-linecap:round;stroke-linejoin:round;stroke-miterlimit:10;" points="
					143.051,425.429 137.598,425.429 140.263,422.697 145.586,422.697 				"/>
				
					<polygon id="XMLID_123_" style="fill:#263238;stroke:#263238;stroke-linecap:round;stroke-linejoin:round;stroke-miterlimit:10;" points="
					146.754,433.361 140.928,433.361 161.212,410.458 165.957,410.458 				"/>
				
					<polygon id="XMLID_122_" style="fill:#C6FF00;stroke:#263238;stroke-linecap:round;stroke-linejoin:round;stroke-miterlimit:10;" points="
					157.724,420.277 152.515,420.277 154.726,417.781 159.817,417.781 				"/>
				
					<polygon id="XMLID_125_" style="fill:#263238;stroke:#263238;stroke-linecap:round;stroke-linejoin:round;stroke-miterlimit:10;" points="
					157.819,433.361 151.993,433.361 170.224,410.458 174.969,410.458 				"/>
				
					<polygon id="XMLID_124_" style="fill:#FFFFFF;stroke:#263238;stroke-linecap:round;stroke-linejoin:round;stroke-miterlimit:10;" points="
					167.617,420.277 162.408,420.277 164.395,417.781 169.486,417.781 				"/>
				
					<polygon id="XMLID_140_" style="fill:#263238;stroke:#263238;stroke-linecap:round;stroke-linejoin:round;stroke-miterlimit:10;" points="
					185.324,433.361 179.498,433.361 192.626,410.458 197.372,410.458 				"/>
				
					<polygon id="XMLID_139_" style="fill:#C6FF00;stroke:#263238;stroke-linecap:round;stroke-linejoin:round;stroke-miterlimit:10;" points="
					187.764,428.722 182.157,428.722 183.812,425.834 189.283,425.834 				"/>
				
					<polygon id="XMLID_138_" style="fill:#263238;stroke:#263238;stroke-linecap:round;stroke-linejoin:round;stroke-miterlimit:10;" points="
					196.389,433.361 190.563,433.361 201.639,410.458 206.384,410.458 				"/>
				
					<polygon id="XMLID_137_" style="fill:#C6FF00;stroke:#263238;stroke-linecap:round;stroke-linejoin:round;stroke-miterlimit:10;" points="
					203.639,416.748 198.597,416.748 199.729,414.407 204.661,414.407 				"/>
				
					<polygon id="XMLID_136_" style="fill:#263238;stroke:#263238;stroke-linecap:round;stroke-linejoin:round;stroke-miterlimit:10;" points="
					207.454,433.361 201.628,433.361 210.651,410.458 215.397,410.458 				"/>
				
					<polygon id="XMLID_135_" style="fill:#C6FF00;stroke:#263238;stroke-linecap:round;stroke-linejoin:round;stroke-miterlimit:10;" points="
					211.451,421.837 206.168,421.837 207.179,419.271 212.341,419.271 				"/>
				
					<polygon id="XMLID_134_" style="fill:#263238;stroke:#263238;stroke-linecap:round;stroke-linejoin:round;stroke-miterlimit:10;" points="
					218.519,433.361 212.693,433.361 219.664,410.458 224.41,410.458 				"/>
				
					<polygon id="XMLID_132_" style="fill:#C6FF00;stroke:#263238;stroke-linecap:round;stroke-linejoin:round;stroke-miterlimit:10;" points="
					220.394,426.073 214.911,426.073 215.752,423.311 221.104,423.311 				"/>
				
					<polygon id="XMLID_131_" style="fill:#263238;stroke:#263238;stroke-linecap:round;stroke-linejoin:round;stroke-miterlimit:10;" points="
					229.585,433.361 223.758,433.361 228.676,410.458 233.422,410.458 				"/>
				
					<polygon id="XMLID_130_" style="fill:#C6FF00;stroke:#263238;stroke-linecap:round;stroke-linejoin:round;stroke-miterlimit:10;" points="
					230.151,429.983 224.484,429.983 225.117,427.034 230.645,427.034 				"/>
				
					<path id="XMLID_116_" style="fill:#C6FF00;stroke:#263238;stroke-linecap:round;stroke-linejoin:round;stroke-miterlimit:10;" d="
					M241.419,430.636c-0.074,1.012-1.523,1.845-3.234,1.845c-1.712,0-2.996-0.833-2.87-1.845c0.123-0.995,1.568-1.79,3.229-1.79
					S241.492,429.641,241.419,430.636z"/>
				
					<path id="XMLID_146_" style="fill:#C6FF00;stroke:#263238;stroke-linecap:round;stroke-linejoin:round;stroke-miterlimit:10;" d="
					M405.637,430.636c1.302,1.012,0.986,1.845-0.725,1.845c-1.712,0-4.129-0.833-5.38-1.845c-1.23-0.995-0.867-1.79,0.794-1.79
					C401.987,428.846,404.356,429.641,405.637,430.636z"/>
				
					<path id="XMLID_143_" style="fill:#C6FF00;stroke:#263238;stroke-linecap:round;stroke-linejoin:round;stroke-miterlimit:10;" d="
					M173.961,430.636c-0.64,1.012-2.553,1.845-4.265,1.845c-1.712,0-2.531-0.833-1.84-1.845c0.679-0.995,2.568-1.79,4.229-1.79
					S174.59,429.641,173.961,430.636z"/>
				
					<path id="XMLID_144_" style="fill:#C6FF00;stroke:#263238;stroke-linecap:round;stroke-linejoin:round;stroke-miterlimit:10;" d="
					M178.191,423.943c-0.57,0.902-2.349,1.645-3.964,1.645c-1.615,0-2.418-0.742-1.802-1.645c0.606-0.888,2.364-1.598,3.934-1.598
					C177.929,422.344,178.753,423.054,178.191,423.943z"/>
				
					<path id="XMLID_145_" style="fill:#C6FF00;stroke:#263238;stroke-linecap:round;stroke-linejoin:round;stroke-miterlimit:10;" d="
					M181.421,418.832c-0.52,0.823-2.198,1.5-3.74,1.5s-2.33-0.676-1.768-1.5c0.553-0.811,2.212-1.459,3.713-1.459
					C181.127,417.373,181.934,418.022,181.421,418.832z"/>
				
					<path id="XMLID_142_" style="fill:#C6FF00;stroke:#263238;stroke-linecap:round;stroke-linejoin:round;stroke-miterlimit:10;" d="
					M241.886,424.268c-0.066,0.908-1.434,1.654-3.054,1.654c-1.62,0-2.841-0.746-2.728-1.654c0.111-0.893,1.475-1.607,3.05-1.607
					C240.727,422.66,241.951,423.374,241.886,424.268z"/>
			</g>
			
				<path id="XMLID_133_" style="fill:#263238;stroke:#263238;stroke-linecap:round;stroke-linejoin:round;stroke-miterlimit:10;" d="
				M382.263,415.937c-0.121-0.175-0.279-0.325-0.494-0.402l-12.691-4.55v-4.007h-3.378v2.796l-1.616-0.579v-2.217h-3.378v1.006
				l-9.84-3.527v-1.297h-9.105v4.846h9.105v-1.317l9.84,3.527v4.839h3.378v-3.628l1.616,0.579v3.049h3.378v-1.838l7.584,2.719
				h-2.444v4.846h9.105v-4.846H382.263z"/>
			<g>
				
					<path id="XMLID_118_" style="fill:#FFFFFF;stroke:#263238;stroke-linecap:round;stroke-linejoin:round;stroke-miterlimit:10;" d="
					M353.381,417.101h-15.872c-9.37-2.379-21.437-4.51-34.611-4.51c-13.731,0-26.257,2.128-35.783,4.51h-14.7l-3.492,6.401
					c0,6.026,24.165,10.911,53.974,10.911s53.974-4.885,53.974-10.911L353.381,417.101z"/>
				<g>
					<defs>
						<ellipse id="XMLID_109_" cx="302.899" cy="417.101" rx="50.482" ry="10.911"/>
					</defs>
					<use xlink:href="#XMLID_109_"  style="overflow:visible;fill:#263238;"/>
					<clipPath id="XMLID_00000019674663223830310940000010481369685527554745_">
						<use xlink:href="#XMLID_109_"  style="overflow:visible;"/>
					</clipPath>
					<path style="clip-path:url(#XMLID_00000019674663223830310940000010481369685527554745_);fill:#ABABAB;" d="M279.359,426.753
						l25.893-10.221l46.805-1.909c-3.352-3.118-12.879-5.722-25.654-7.178l-22.463,6.791l-51.35,3.734
						C253.985,421.789,264.461,425.052,279.359,426.753z"/>
					
						<use xlink:href="#XMLID_109_"  style="overflow:visible;fill:none;stroke:#263238;stroke-linecap:round;stroke-linejoin:round;stroke-miterlimit:10;"/>
				</g>
				
					<ellipse id="XMLID_112_" style="fill:#FFFFFF;stroke:#263238;stroke-linecap:round;stroke-linejoin:round;stroke-miterlimit:10;" cx="302.899" cy="415.355" rx="19.52" ry="4.219"/>
				
					<path id="XMLID_113_" style="fill:#263238;stroke:#263238;stroke-linecap:round;stroke-linejoin:round;stroke-miterlimit:10;" d="
					M307.61,414.304c0,0.562-2.109,1.018-4.712,1.018s-4.712-0.456-4.712-1.018c0-0.563,2.109-1.018,4.712-1.018
					S307.61,413.742,307.61,414.304z"/>
			</g>
		</g>
	</g>
</g>
<g id="Character">
	<g>
		<path style="fill:#C6FF00;stroke:#263238;stroke-linecap:round;stroke-linejoin:round;stroke-miterlimit:10;" d="M200.483,312.287
			l5.378-22.215c0,0,4.946,45.972,5.528,53.537c0.478,6.218-4.153,47.416-5.818,61.895h111.143l-11.053-63.35l1.746-61.103
			l6.692,29.969c0,0,14.257,0.582,26.478-4.365c12.221-4.946,14.839-9.02,14.839-9.02s-27.351-63.43-32.006-72.159
			c-4.655-8.729-4.946-10.766-4.946-10.766s-36.08-15.13-57.029-25.605l-14.839,2.037c0,0-58.775,25.023-59.939,27.06
			c-1.164,2.037-16.144,67.315-24.291,81.281c0,0,17.167,9.893,27.642,11.348C200.483,312.287,200.483,312.287,200.483,312.287z"/>
		<g id="XMLID_149_">
			
				<ellipse id="XMLID_81_" transform="matrix(0.1646 -0.9864 0.9864 0.1646 -60.6587 483.3014)" style="fill:#5E5E5E;" cx="255" cy="277.462" rx="40.462" ry="40.462"/>
			<path id="XMLID_153_" style="fill:#ABABAB;" d="M254.331,275.976l-15.13,38.746c4.854,2.061,10.193,3.202,15.798,3.202
				c6.046,0,11.776-1.335,16.927-3.712l-16.746-37.214l14.536-37.226C265.154,237.99,260.194,237,255,237
				c-5.919,0-11.536,1.282-16.603,3.566L254.331,275.976z"/>
			
				<ellipse id="XMLID_147_" transform="matrix(0.1657 -0.9862 0.9862 0.1657 -60.8846 482.9546)" style="fill:#FFFFFF;" cx="255" cy="277.462" rx="19.987" ry="19.987"/>
			<path id="XMLID_148_" style="fill:#5E5E5E;" d="M258.9,277.462c0,2.154-1.746,3.9-3.9,3.9s-3.9-1.746-3.9-3.9s1.746-3.9,3.9-3.9
				S258.9,275.308,258.9,277.462z"/>
		</g>
		<path style="fill:none;stroke:#263238;stroke-linecap:round;stroke-linejoin:round;stroke-miterlimit:10;" d="M246.597,191.144
			c0,0-7.507,3.196-17.208,7.396c0,0.065-0.004,0.129-0.004,0.194c0,16.348,9.88,29.6,22.069,29.6
			c12.188,0,22.069-13.252,22.069-29.6c0-1.327-0.072-2.631-0.198-3.912c-4.235-1.975-8.288-3.914-11.889-5.715L246.597,191.144z"/>
		
			<line style="fill:none;stroke:#263238;stroke-linecap:round;stroke-linejoin:round;stroke-miterlimit:10;" x1="205.862" y1="290.072" x2="196.768" y2="251.206"/>
		
			<line style="fill:none;stroke:#263238;stroke-linecap:round;stroke-linejoin:round;stroke-miterlimit:10;" x1="199.462" y1="263.603" x2="187.604" y2="248.511"/>
		<path style="fill:none;stroke:#263238;stroke-linecap:round;stroke-linejoin:round;stroke-miterlimit:10;" d="M307.409,281.052
			c0,0-3.92-23.917-2.842-38.47"/>
		<path style="fill:none;stroke:#263238;stroke-linecap:round;stroke-linejoin:round;stroke-miterlimit:10;" d="M306.723,277.078
			c0,0-1.078-22.638,2.695-33.957"/>
		<g>
			<g>
				
					<path id="XMLID_102_" style="fill:#B2B2B2;stroke:#263238;stroke-linecap:round;stroke-linejoin:round;stroke-miterlimit:10;" d="
					M232.631,174.268c0,0,1.455,23.277,2.037,29.969c0.582,6.692,6.692,18.04,17.749,17.458
					c11.057-0.582,14.839-13.093,15.421-17.749c0.582-4.655,0-28.224,0-28.224s-9.602,8.147-20.368,6.11
					C247.47,181.833,239.905,180.378,232.631,174.268z"/>
				<path style="fill:#263238;stroke:#263238;stroke-linecap:round;stroke-linejoin:round;stroke-miterlimit:10;" d="
					M267.837,175.723c0,0-9.602,8.147-20.367,6.11c0,0-7.565-1.455-14.839-7.565c0,0,0.377,6.029,0.824,12.832
					c4.597,5.413,10.486,10.358,13.143,11.42c4.365,1.746,11.348,1.164,14.839-2.037c1.311-1.202,3.893-3.47,6.638-6.511
					C268.012,182.805,267.837,175.723,267.837,175.723z"/>
				<g id="XMLID_92_">
					
						<path id="XMLID_84_" style="fill:#B2B2B2;stroke:#263238;stroke-linecap:round;stroke-linejoin:round;stroke-miterlimit:10;" d="
						M230.012,105.6c0,0-6.692,4.655-6.692,12.802s2.328,43.645,4.074,51.21c1.746,7.565,14.839,19.786,19.204,21.531
						c4.365,1.746,11.348,1.164,14.839-2.037c3.492-3.201,16.003-13.966,16.585-26.769c0.582-12.803,1.746-29.969,0-40.735
						c-1.746-10.766-8.147-18.04-16.585-20.95C252.998,97.744,235.831,99.781,230.012,105.6z"/>
					
						<path id="XMLID_90_" style="fill:#263238;stroke:#263238;stroke-linecap:round;stroke-linejoin:round;stroke-miterlimit:10;" d="
						M261.436,100.654c-8.438-2.91-25.605-0.873-31.424,4.946c0,0-6.692,4.655-6.692,12.802c0,2.539,0.226,7.735,0.59,13.913
						l0.574,0.344c0,0,1.164-9.893,9.602-13.384s20.658,1.455,26.769,0.873c6.11-0.582,11.057-12.221,11.348-9.02
						c0.291,3.201-6.692,9.02-6.401,9.893c0.291,0.873,4.655,5.528,8.438,12.221c1.809,3.2,3.349,5.055,4.689,5.689
						c0.071-6.414-0.126-12.512-0.907-17.328C276.275,110.838,269.874,103.564,261.436,100.654z"/>
					
						<path id="XMLID_86_" style="fill:none;stroke:#263238;stroke-width:2;stroke-linecap:round;stroke-linejoin:round;stroke-miterlimit:10;" d="
						M231.758,150.118c0,0,3.783,3.492,9.893,0"/>
					
						<path id="XMLID_88_" style="fill:none;stroke:#263238;stroke-width:2;stroke-linecap:round;stroke-linejoin:round;stroke-miterlimit:10;" d="
						M258.818,150.118c0,0,3.783,3.492,9.893,0"/>
					
						<path id="XMLID_89_" style="fill:none;stroke:#263238;stroke-width:2;stroke-linecap:round;stroke-linejoin:round;stroke-miterlimit:10;" d="
						M230.594,140.516c0,0,4.074-5.237,12.221-2.328"/>
					
						<path id="XMLID_91_" style="fill:none;stroke:#263238;stroke-width:2;stroke-linecap:round;stroke-linejoin:round;stroke-miterlimit:10;" d="
						M257.654,138.77c0,0,4.946-6.11,13.384,0"/>
					<path id="XMLID_85_" style="fill:none;stroke:#263238;stroke-linecap:round;stroke-linejoin:round;stroke-miterlimit:10;" d="
						M242.814,160.302c0,0-0.582,2.91,1.455,4.365c2.037,1.455,6.401,4.364,9.02,3.201c2.619-1.164,6.692-2.619,6.983-4.365
						c0.291-1.746,0.291-1.746,0.291-1.746"/>
					<path id="XMLID_93_" style="fill:none;stroke:#263238;stroke-linecap:round;stroke-linejoin:round;stroke-miterlimit:10;" d="
						M241.36,169.322c0,0,9.893,8.729,22.695,0"/>
				</g>
			</g>
			<g>
				<g id="XMLID_98_">
					
						<path id="XMLID_100_" style="fill:#858585;stroke:#263238;stroke-linecap:round;stroke-linejoin:round;stroke-miterlimit:10;" d="
						M216.917,138.886c-0.821,0-1.514-0.636-1.571-1.468c-0.049-0.708-1.135-17.459,4.283-26.79
						c0.437-0.752,1.401-1.009,2.155-0.572c0.753,0.437,1.009,1.402,0.572,2.155c-4.938,8.503-3.875,24.826-3.864,24.99
						c0.06,0.868-0.596,1.621-1.465,1.681C216.99,138.885,216.953,138.886,216.917,138.886z"/>
				</g>
				<g id="XMLID_101_">
					
						<path id="XMLID_99_" style="fill:#858585;stroke:#263238;stroke-linecap:round;stroke-linejoin:round;stroke-miterlimit:10;" d="
						M283.732,138.886c-0.036,0-0.073-0.001-0.11-0.004c-0.868-0.06-1.524-0.812-1.465-1.681c0.011-0.164,1.067-16.498-3.864-24.99
						c-0.437-0.753-0.181-1.718,0.572-2.155c0.755-0.436,1.719-0.181,2.155,0.572c5.418,9.331,4.332,26.082,4.283,26.79
						C285.245,138.249,284.553,138.886,283.732,138.886z"/>
				</g>
				
					<path id="XMLID_104_" style="fill:#858585;stroke:#263238;stroke-linecap:round;stroke-linejoin:round;stroke-miterlimit:10;" d="
					M286.187,117.753c-0.049-0.273-1.262-6.751-6.745-13.012c-4.307-4.918-12.065-10.576-25.386-11.668
					c-0.305-0.092-0.62-0.159-0.953-0.169c-0.816-0.023-1.602-0.018-2.385-0.011c-0.005,0-0.01,0-0.014,0
					c-0.266,0.002-0.541-0.003-0.803,0.003c-0.774-0.007-1.547-0.015-2.354,0.008c-0.334,0.01-0.649,0.077-0.954,0.169
					c-27.747,2.262-32.087,24.439-32.13,24.68c-0.359,1.999,0.971,3.911,2.971,4.27c0.22,0.04,0.438,0.058,0.654,0.058
					c1.747,0,3.297-1.249,3.616-3.029c0.034-0.19,3.629-18.339,28.65-18.807c24.763,0.456,28.438,18.002,28.597,18.825
					c0.327,1.77,1.872,3.011,3.613,3.011c0.215,0,0.434-0.019,0.654-0.058C285.216,121.664,286.546,119.752,286.187,117.753z"/>
				<path id="XMLID_126_" style="fill:none;stroke:#263238;stroke-linecap:round;stroke-linejoin:round;stroke-miterlimit:10;" d="
					M220.318,158.528c0,0,1.401,49.746,7.006,98.09c5.327,45.948,3.376,111.517-0.139,148.282"/>
				<path id="XMLID_127_" style="fill:none;stroke:#263238;stroke-linecap:round;stroke-linejoin:round;stroke-miterlimit:10;" d="
					M281.274,158.178c0,0-7.707,79.523-17.866,107.899c-10.159,28.376-23.471,36.784-33.631,19.968"/>
				<g id="XMLID_129_">
					
						<path id="XMLID_115_" style="fill:#FFFFFF;stroke:#263238;stroke-linecap:round;stroke-linejoin:round;stroke-miterlimit:10;" d="
						M219.537,135.298c-0.098-0.004-0.193-0.019-0.291-0.019c-5.624,0-10.184,5.927-10.184,13.239
						c0,7.312,4.559,13.239,10.184,13.239c0.098,0,0.193-0.016,0.291-0.019V135.298z"/>
					
						<path id="XMLID_94_" style="fill:#858585;stroke:#263238;stroke-linecap:round;stroke-linejoin:round;stroke-miterlimit:10;" d="
						M220.235,163.211h1.514c1.832,0,3.316-1.485,3.316-3.316V137.14c0-1.831-1.485-3.316-3.316-3.316h-1.514
						c-1.832,0-3.316,1.485-3.316,3.316v22.755C216.918,161.727,218.403,163.211,220.235,163.211z"/>
				</g>
				<g id="XMLID_128_">
					
						<path id="XMLID_97_" style="fill:#FFFFFF;stroke:#263238;stroke-linecap:round;stroke-linejoin:round;stroke-miterlimit:10;" d="
						M284.131,135.298c0.098-0.004,0.193-0.019,0.291-0.019c5.624,0,10.184,5.927,10.184,13.239c0,7.312-4.559,13.239-10.184,13.239
						c-0.098,0-0.193-0.016-0.291-0.019V135.298z"/>
					
						<path id="XMLID_96_" style="fill:#858585;stroke:#263238;stroke-linecap:round;stroke-linejoin:round;stroke-miterlimit:10;" d="
						M283.434,163.211h-1.514c-1.832,0-3.316-1.485-3.316-3.316V137.14c0-1.831,1.485-3.316,3.316-3.316h1.514
						c1.831,0,3.316,1.485,3.316,3.316v22.755C286.75,161.727,285.265,163.211,283.434,163.211z"/>
				</g>
			</g>
			<g id="XMLID_105_">
				
					<path id="XMLID_83_" style="fill:#B2B2B2;stroke:#263238;stroke-linecap:round;stroke-linejoin:round;stroke-miterlimit:10;" d="
					M195.066,311.535c-1.333-0.185-2.988-0.415-5.058-0.702c-5.829-0.81-13.728-4.232-19.59-7.109
					c-2.448,5.52-6.099,15.696-7.76,30.095c-1.335,11.569-13.966,48.882-16.294,55.283c-2.328,6.401,3.201,9.602,3.492,15.421
					c0.291,5.819,9.893,10.184,10.766,11.639c0.873,1.455,4.365,1.746,3.783-1.164c-0.582-2.91-2.619-5.528-2.328-8.147
					c0.291-2.619,2.037-12.802,2.037-12.802s3.492,1.746,4.655,3.492c1.164,1.746-1.164,6.983-2.328,11.348
					c-1.164,4.364,1.455,8.438,2.619,7.856c1.164-0.582,3.492-10.184,6.11-15.421c2.619-5.237,2.037-7.274-0.291-10.184
					c-2.328-2.91-10.475-16.585-10.475-16.585s22.404-38.407,25.896-47.136C192.117,322.875,193.771,316.595,195.066,311.535z"/>
				<path style="fill:#263238;stroke:#263238;stroke-linecap:round;stroke-linejoin:round;stroke-miterlimit:10;" d="
					M170.418,303.724c-0.42,0.948-0.878,2.043-1.353,3.263c4.199,3.439,12.639,8.491,25.217,7.567
					c0.272-1.035,0.536-2.053,0.784-3.019c-1.333-0.185-2.988-0.415-5.057-0.703C184.179,310.023,176.281,306.601,170.418,303.724z"
					/>
				
					<path id="XMLID_106_" style="fill:#B2B2B2;stroke:#263238;stroke-linecap:round;stroke-linejoin:round;stroke-miterlimit:10;" d="
					M155.384,394.34c0,0,0.582,11.638,0,14.839c-0.582,3.201,5.237,5.819,6.11,8.438c0.873,2.619,5.237,4.365,5.528-0.873
					c0.291-5.237-4.946-9.893-4.946-9.893l2.91-14.257"/>
				
					<line id="XMLID_107_" style="fill:none;stroke:#263238;stroke-linecap:round;stroke-linejoin:round;stroke-miterlimit:10;" x1="149.274" y1="395.212" x2="149.855" y2="401.905"/>
			</g>
			<g id="XMLID_108_">
				
					<path id="XMLID_111_" style="fill:#B2B2B2;stroke:#263238;stroke-linecap:round;stroke-linejoin:round;stroke-miterlimit:10;" d="
					M340.579,306.657c-4.543,1.839-13.26,3.549-17.529,4.173c-3.956,5.27-12.086,19.706-25.486,38.097
					c-8.011,10.995-16.468,17.115-17.341,19.443c-0.873,2.328-12.635,23.089-15.545,27.744c-2.91,4.655-5.237,7.565-3.201,7.856
					c2.037,0.291,2.91,0.582,6.401-3.783c3.492-4.364,9.02-16.003,9.02-16.003s-4.655,17.749-5.819,20.367
					c-1.164,2.619-2.328,4.074-0.291,4.946c2.037,0.873,5.528,0.291,7.856-4.073s11.639-22.695,11.639-22.695
					s-7.274,22.113-8.438,24.441c-1.164,2.328,3.491,3.492,4.946,0.873c1.455-2.619,5.433-16.205,6.306-17.078
					c0.873-0.873,3.656-5.67,4.992-12.349c0.526-2.627,1.051-9.721,1.051-9.721s35.91-30.815,45.802-41.29
					c9.893-10.475,13.966-15.712,13.966-20.659c0-2.831-2.381-6.039-4.419-8.268C352.934,300.197,349.086,303.213,340.579,306.657z"
					/>
				<path style="fill:#263238;stroke:#263238;stroke-linecap:round;stroke-linejoin:round;stroke-miterlimit:10;" d="
					M355.308,299.612c-0.275-0.325-0.549-0.638-0.818-0.932c-1.557,1.518-5.404,4.534-13.912,7.977
					c-4.543,1.839-13.26,3.549-17.529,4.173c-0.76,1.012-1.677,2.369-2.753,4.021C328.801,314.836,344.83,312.86,355.308,299.612z"
					/>
				<path id="XMLID_110_" style="fill:none;stroke:#263238;stroke-linecap:round;stroke-linejoin:round;stroke-miterlimit:10;" d="
					M270.789,409.499c0,0,8.438-13.966,11.639-27.06"/>
			</g>
		</g>
	</g>
</g>
<g id="Musical_Notes">
	<g>
		<g>
			<path style="fill:#263238;" d="M332.672,142.632c0,0-2.94-1.464-5.73-3.332c-2.79-1.867-4.317-0.969-3.953,0.268
				c0.364,1.237-1.987,9.993-5.551,14.627c-3.565,4.633-3.241-0.659-5.928-1.571c-2.688-0.911-4.142,1.757-2.075,4.822
				c2.067,3.065,6.724,2.143,7.335,0.26c0.611-1.882,4.985-10.159,6.28-12.153c1.295-1.994,2.259-1.907,4.608,0.436
				c3.678,3.667,7.932,2.594,7.932,2.594s-4.815,9.213-6.28,12.153c-1.464,2.94-2.686,6.704-4.859,6.627
				c-2.173-0.077-4.604-4.38-6.331-1.721c-1.726,2.659,3.421,7.057,6.186,5.796c2.765-1.262,4.466-7.049,6.513-11.057
				c2.046-4.007,7.996-14.54,7.642-16.048C338.105,142.825,335.331,144.358,332.672,142.632z"/>
		</g>
		<g>
			<path style="fill:#263238;" d="M313.776,121.623c0,0-2.079-1.036-4.052-2.356c-1.973-1.32-3.053-0.686-2.796,0.189
				c0.257,0.875-1.405,7.067-3.926,10.344c-2.521,3.277-2.292-0.466-4.192-1.111c-1.901-0.645-2.929,1.242-1.468,3.41
				c1.462,2.168,4.755,1.515,5.187,0.184c0.432-1.331,3.525-7.184,4.441-8.594c0.916-1.41,1.597-1.349,3.259,0.308
				c2.601,2.593,5.609,1.834,5.609,1.834s-3.405,6.515-4.441,8.594c-1.036,2.079-1.9,4.741-3.436,4.687
				c-1.537-0.055-3.256-3.097-4.477-1.217c-1.221,1.88,2.419,4.991,4.375,4.099c1.955-0.892,3.159-4.985,4.606-7.819
				c1.447-2.834,5.655-10.282,5.404-11.349C317.618,121.759,315.656,122.844,313.776,121.623z"/>
		</g>
		<g>
			<path style="fill:#263238;" d="M194.504,157.082c0,0-2.079-1.036-4.052-2.356c-1.973-1.32-3.053-0.686-2.796,0.189
				c0.257,0.875-1.405,7.067-3.926,10.344c-2.521,3.277-2.292-0.466-4.192-1.111c-1.901-0.645-2.929,1.242-1.468,3.41
				c1.462,2.168,4.755,1.515,5.187,0.184c0.432-1.331,3.525-7.184,4.441-8.594s1.597-1.349,3.259,0.308
				c2.601,2.593,5.609,1.834,5.609,1.834s-3.405,6.515-4.441,8.594c-1.036,2.079-1.9,4.741-3.436,4.687
				c-1.537-0.055-3.256-3.097-4.477-1.217c-1.221,1.88,2.419,4.991,4.375,4.099c1.955-0.892,3.159-4.985,4.606-7.819
				c1.447-2.834,5.655-10.282,5.404-11.349C198.346,157.218,196.384,158.303,194.504,157.082z"/>
		</g>
	</g>
</g>
</svg>
